<?xml version="1.0" encoding="UTF-8"?>
<svg id="a" data-name="Layer 1" xmlns="http://www.w3.org/2000/svg" width="600" height="600" viewBox="0 0 600 600">
  <path d="M257.886,608.191h-21.473c-3.829-2.081-7.054-5.007-10.559-7.54-13.38-9.668-36.164-10.952-48.375,3.858-1.251,1.518-3.257,2.112-4.461,3.682h-33.743c-11.279-9.899-24.409-15.515-39.293-17.303-9.826-1.18-18.415,1.267-25.993,7.649-3.119,2.627-2.886,7.299-6.29,9.654h-23.518c-6.118-3.183-10.189-8.713-14.944-13.389-6.48-6.372-13.658-11.606-21.909-15.245-2.841-1.253-5.126-2.874-7.115-5.113v-17.385c1.003-.646,2.125-1.048,3.185-1.567,3.101-1.517,7.483-.247,9.465-4.11,3.291-6.417,7.732-12.468,6.479-20.378-.506-3.193-.044-6.461-.338-9.681-.972-10.631-6.118-18.818-14.774-24.859-1.566-1.093-2.806-2.42-4.016-3.831v-27.611c1.683-2.363,4.277-2.469,6.811-2.811,20.496-2.761,34.246-14.054,41.414-33.291,3.688-9.896,.261-21.831-7.476-28.712-1.527-1.358-3.194-.812-4.761-1.191-9.897-2.392-19.216-.68-28.061,4.235-2.426,1.348-4.827,3.519-7.927,1.433v-48.064c1.817-2.608,4.286-2.142,6.862-1.553,6.756,1.544,13.495,1.463,20.211-.34,16.966-4.556,25.316-18.497,22.144-35.836-1.511-8.261-5.927-14.612-10.894-20.87-8.959-11.649-20.754-19.645-33.763-25.984-2.146-1.046-3.615-2.322-4.56-4.385v-16.362c1.068-1.086,2.118-2.133,3.729-2.465,10.518-2.167,14.685-9.824,15.315-19.398,.586-8.912,.06-17.812-3.898-26.331-3.298-7.097-8.843-11.395-15.146-15.208v-28.634c1.568-2.15,3.914-2.409,6.311-2.764,19.176-2.839,32.93-12.893,40.876-30.733,4.887-10.971,2.893-23.8-6.588-31.034-5.548-4.233-13.066-4.543-20.036-2.421-5.206,1.585-10.33,3.52-15.005,6.4-1.866,1.15-3.635,1.88-5.558,.218V49.834c4.139-2.474,8.327-.453,12.394,.096,14.379,1.941,28.722-4.777,34.71-17.071,4.114-8.446,3.188-17.196,.136-25.801-.818-2.307-1.827-4.51,.817-6.31h18.405c1.908,1.326,3.616,2.775,4.324,5.155,3.675,12.348,12.903,18.964,24.495,22.34,9.758,2.841,19.757,2.722,29.55-.762,10.687-3.802,15.344-12.012,16.263-22.618,.177-2.041,.821-3.015,2.057-4.114h27.608c2.072,2.574,2.369,5.995,4.162,8.704,.038,.504,.063,1.009,.092,1.511,3.73,6.539,9.424,10.773,16.59,12.322,8.109,1.752,16.329,3.046,24.79,2.151,3.455-.365,6.472-1.378,9.505-2.757,6.198-3.437,9.549-8.869,10.68-15.699,.392-2.367,.559-4.681,2.689-6.232h19.428c1.328,1.453,2.876,2.56,3.59,4.681,8.561,25.429,26.763,39.347,52.748,43.936,5.263,.93,10.415,1.097,15.702,.008,18.506-3.809,28.216-18.881,23.843-37.261-.514-2.161-1.231-4.253-1.953-6.345-.668-1.934-.638-3.674,1.164-5.021h18.405c2.564,1.083,3.888,3.254,4.676,5.719,3.643,11.395,11.816,18.176,22.853,21.336,12.225,3.5,24.407,3.916,35.881-3.209,6.204-3.853,9.796-9.128,10.821-16.363,.365-2.573-.36-5.658,2.457-7.482h27.608c2.315,1.64,.915,4.826,2.794,6.653,3.344,9.005,9.86,14.579,18.917,17.225,3.743,1.093,7.655,1.423,11.58,1.187,4.053,.506,8.105,.425,12.154-.028,2.599,.049,4.795-1.417,7.229-1.946,8.2-2.645,11.656-9.013,13.063-16.883,.42-2.348,.66-4.664,2.771-6.208h19.428c1.933,1.554,3.032,3.686,3.737,5.958,4.212,13.567,12.945,23.691,24.255,31.791,2.545,1.822,4.813,3.825,6.773,6.224V109.147c-1.887,4.292-4.259,8.333-6.479,12.451-2.654,4.921-3.494,10.242-3.384,15.707,.05,2.483,.452,5.039,2.425,6.983,2.959,2.916,5.363,6.265,7.438,9.855v36.815c-1.785,3.716-4.335,6.992-6.125,10.709-4.106,8.528-4.929,17.155-1.28,26.104,2.38,5.836,4.965,11.579,7.404,17.387v20.453c-1.321,1.653-3.046,2.391-5.151,2.618-3.83,.413-7.509,1.435-10.889,3.366-8.381,1.966-12.516,7.93-14.774,15.669-.386,2.738-.876,5.468-1.031,8.237-1.878,11.5,1.369,21.854,7.566,31.347,4.784,7.327,10.888,13.529,18.386,18.112,2.734,1.671,4.675,3.694,5.892,6.552v63.403c-1.82,3.931-3.816,7.775-6.021,11.501-3.179,5.372-3.688,11.421-4.118,17.377-.16,2.218,.917,4.679,2.885,6.503,3.203,2.968,5.633,6.548,7.254,10.638v35.792c-1.434,3.367-3.649,6.264-5.524,9.367-4.504,7.454-5.217,15.737-3.286,24.044,1.646,7.08,5.226,13.462,8.81,19.765v21.475c-1.428,1.883-3.481,2.273-5.671,2.724-4.382,.904-8.873,1.585-12.796,4.019-.656,.543-1.109,1.521-1.723,1.799-9.67,4.375-11.446,13.143-12.394,22.279-.268,2.579-1.461,4.358-3.204,5.994h-21.473c-6.343-3.266-11-8.924-17.787-11.742-14.192-5.892-28.883-3.579-39.917,7.113-1.774,1.719-3.789,3.094-5.692,4.629h-33.743c-12.897-12.405-28.911-16.844-46.173-17.617-7.972-.357-14.528,3.835-20.423,8.663-2.639,2.161-1.718,6.82-4.98,8.954h-23.518c-4.814-2.178-7.597-6.643-11.216-10.134-8.687-8.381-17.816-16.054-29.301-20.33-12.457-4.638-24.758-5.353-36.636,1.858-2.19,.887-3.562,2.675-4.901,4.497-3.735,5.584-6.162,11.708-7.251,18.318-.372,2.255-.796,4.335-2.721,5.792Z" fill="#978061"/>
  <path d="M.213,98.92c8.2-4.835,16.342-9.735,26.294-10.112,18.197-.688,31.44,14.952,24.324,34.983-8.22,23.136-25.691,35.136-50.618,35.464v-29.656c1.112-2.377,3.002-3.756,5.388-4.835,6.494-2.936,13.194-5.498,19.286-9.222,4.723-2.887,8.323-6.949,10.61-12.942-8.629,7.886-18.276,12.945-28.156,17.622-2.363,1.119-4.702,2.172-7.129,.173v-21.475Z" fill="#bfac88"/>
  <path d="M.213,404.687c9.426-5.653,18.977-10.379,30.617-9.341,11.763,1.049,20.541,10.091,21.665,21.838,1.728,18.041-15.56,38.748-31.74,44.617-6.674,2.421-13.53,3.199-20.542,3.221v-29.656c1.115-2.384,2.975-3.785,5.43-4.775,6.144-2.478,12.278-4.984,18.103-8.205,5.926-3.277,9.654-8.312,12.302-14.401-8.017,9.461-19.693,13.063-29.944,18.91-1.961,1.119-4.198,1.655-5.891-.733v-21.475Z" fill="#c0ac8a"/>
  <path d="M143.364,.748c-.513,4.87,.521,9.853-1.507,14.625-3.387,7.969-9.49,13.311-17.492,15.268-17.718,4.333-34.493,2.829-48.418-10.855-5.395-5.302-7.272-12.163-9.271-19.038h34.765c10.116,3.413,19.959,8.37,31.066,5.462-3.271-.605-6.553-1.706-9.984-2.2-1.792-.258-2.724-1.353-1.654-3.263h22.495Z" fill="#806a51"/>
  <path d="M449.096,.748c.228,7.558,.146,14.898-5.457,21.109-3.103,3.44-6.865,5.652-10.852,7.417-17.392,7.697-45.914,3.098-55.761-16.117-1.999-3.901-3.102-8.261-4.617-12.409,11.588,0,23.177,0,34.765,0,9.642,2.524,18.584,8.92,29.998,5.464-3.186-1.176-6.011-.773-8.54-1.864-1.676-.722-3.334-1.276-2.03-3.6h22.495Z" fill="#7f6b51"/>
  <path d="M354.002,.748c.615,1.933,1.132,3.904,1.859,5.794,9.06,23.539-5.644,45.765-30.975,46.209-25.774,.451-54.771-15.75-63.99-43.604-.901-2.721-1.337-5.595-1.988-8.399h7.158c4.096,5.859,5.373,13.262,10.21,18.711,12.347,13.907,27.624,21.623,46.415,21.569,5.741-.016,10.986-2.199,15.696-5.371,1.871-1.26,4.559-3.308-.186-4.662-7.097-.56-13.046-3.693-18.243-8.332-5.975-5.333-11.591-11.026-16.505-17.381-1.117-1.444-1.984-2.818-.577-4.535h17.383c6.945,3.653,11.508,10.366,18.279,14.246,.438,.251,.794,.647,1.235,.898,2.153,1.224,4.315,3.546,6.892,1.66,2.445-1.79,1.616-4.644,.87-7.08-1.016-3.319-1.988-6.554,.332-9.724h6.135Z" fill="#492c14"/>
  <path d="M40.124,297.312c6.329,7.499,11.489,15.453,12.574,25.65,1.943,18.268-10.917,33.522-30.186,35.463-7.566,.762-14.912-.639-22.299-1.801v-9.204c1.794-2.498,4.162-2.538,6.819-1.692,7.581,2.413,14.812,.878,21.87-2.115,1.877-.796,4.015-1.677,3.894-4.169-.116-2.398-2.387-2.598-4.12-3.149-10.668-3.391-18.28-10.902-25.512-18.912-1.717-1.902-1.295-4.807-2.951-6.778v-17.385c2.566-2.063,4.027,.099,5.538,1.557,5.843,5.635,10.711,12.2,16.775,17.629,4.532,4.058,8.939,8.277,14.484,10.997,1.136,.383,2.169,.952,3.052,1.76,.933,.854,1.361,2.753,3.038,2.116,1.64-.622,1.421-2.478,1.476-3.864,.283-7.166,.218-14.243-5.466-19.825-1.047-1.028-1.877-2.438-2.413-3.842-.594-1.555-2.999-3.296-.769-4.838,2.23-1.542,2.987,1.202,4.194,2.401Z" fill="#482a12"/>
  <path d="M48.271,.748c.714,4.873,3.364,9.113,4.094,14.08,3.217,21.901-11.982,35.793-30.637,37.749-7.315,.767-14.563-.105-21.515-2.743v-7.158c2.032-2.704,4.761-2.681,7.734-2.119,7.032,1.329,13.888,.595,20.531-2.056,2.07-.826,4.085-1.856,5.493-3.603,1.464-1.816,1.577-3.466-1.366-3.889C17.38,27.763,6.714,18.878,.213,4.838-.561,1.338,.77,.261,4.312,.665c3.365,.384,6.807,.083,10.216,.083,5.53,3.005,9.77,7.651,14.609,11.532,1.724,1.383,3.395,2.842,5.305,3.946,2.002,1.157,4.1,3.206,6.498,1.644,2.408-1.568,1.155-4.259,1.131-6.585-.036-3.532-2.31-7.351,1.087-10.537h5.113Z" fill="#472912"/>
  <path d="M302.876,.748c4.865,5.401,9.664,10.863,14.611,16.187,5.801,6.243,13.111,10.013,21.179,12.445,2.817,2.549,1.695,4.387-1.094,5.866-6.208,3.292-12.961,4.461-19.776,3.578-15.257-1.977-27.932-9.163-38.128-20.611-2.959-3.322-4.501-7.575-6.175-11.661-.954-2.329-.182-4.286,1.775-5.804,9.203,0,18.405,0,27.608,0Z" fill="#774722"/>
  <path d="M34.987,325.92c-10.46-7.407-19.582-16.225-27.787-26.055-2.046-2.451-4.643-4.442-6.987-6.645v-20.453c1.402-1.547,2.892-1.573,4.767-.681,10.413,4.959,20.725,10.685,27.783,19.645,6.583,8.357,13.278,17.475,12.026,29.625-.706,6.853-1.498,7.806-7.929,5.311-.627-.243-1.311-.341-1.874-.748Z" fill="#774822"/>
  <path d="M373.43,608.191c.888-10.646,10.071-19.533,22.631-20.089,14.787-.654,28.957,2.641,41.571,10.845,3.353,2.181,6.734,4.719,7.374,9.243h-32.72c-8.535-1.62-16.699-4.804-26.482-6.363,7.394,2.177,7.752,2.618,6.032,6.363h-18.405Z" fill="#7f6b52"/>
  <path d="M67.698,608.191c-.108-7.575,4.352-12.321,10.316-15.779,7.63-4.425,15.9-5.461,24.604-3.831,9.047,1.694,17.92,3.784,26.009,8.409,4.682,2.677,8.579,6.059,10.646,11.202h-32.72c-8.115-2.127-16.318-3.9-24.377-6.197,2.123,1.583,6.329,1.744,3.927,6.197h-18.405Z" fill="#7e6c52"/>
  <path d="M343.777,608.191h-29.653c-3.824-1.511-6.779-3.995-9.481-7.16-4.656-5.454-10.156-10.069-16.593-13.382-1.978-1.018-3.461-2.143-3.182-4.62-.012-4.661,3.48-6.014,6.97-6.792,8.311-1.853,16.36-.224,23.544,3.928,10.253,5.925,19.623,13.07,27.357,22.267,1.781,2.118,2.532,3.488,1.038,5.759Z" fill="#774823"/>
  <path d="M.213,187.889c6.46-.186,10.878,3.23,14.265,8.27,8.053,11.985,9.242,25.431,6.677,39.012-1.545,8.181-8.717,17.409-20.942,16.121v-15.339c1.348-1.386,2.758-.699,4.423,.089-1.522-10.488-.522-20.806-.869-31.098-.165-4.897-.656-9.762-3.554-13.988v-3.068Z" fill="#806b52"/>
  <path d="M.213,492.634c10.605,3.648,17.823,10.667,20.001,21.786,2.353,12.012,4.503,24.147-3.558,35.286-4.269,5.899-10.211,8.825-16.443,7.354v-14.317c3.672-2.496,4.02,1.44,5.541,2.728-2.727-9.266-2.189-18.924-1.583-28.572,.425-6.762-.505-13.208-3.958-19.151v-5.113Z" fill="#7f6b52"/>
  <path d="M.213,310.605c5.753,5.735,10.659,12.336,17.467,16.992,4.221,2.886,8.507,5.643,13.674,6.488,2.633,.431,5.321,1.067,5.913,3.968,.629,3.078-1.545,5.203-4.003,6.469-8.034,4.136-16.476,6.317-25.544,4.11-2.483-.604-4.931-1.258-7.507-1.212v-36.815Z" fill="#704420"/>
  <path d="M275.269,.748c-.033,6.121,2.662,11.501,6.418,15.709,11.435,12.809,25.637,20.511,43.302,19.505,5.096-.29,11.188-.139,13.678-6.582,2.654,.562,6.772-1.569,7.674,1.642,.729,2.592-3.023,4.534-5.281,6.215-10.998,8.189-23.485,7.879-35.564,4.3-13.338-3.953-25.191-11.219-33.157-23.12-3.477-5.194-7.364-10.663-6.273-17.67h9.203Z" fill="#603a1b"/>
  <path d="M599.405,293.221v39.883c-1.773,2.16-3.712,1.395-5.348,.015-10.618-8.958-19.021-19.049-16.902-34.303,.444-3.195,.211-6.432,.851-9.636,.986-4.939,3.28-8.52,8.505-9.632,6.689,2.292,10.134,7.66,12.894,13.673Z" fill="#764822"/>
  <path d="M587.16,281.936c-2.585,.28-4.301,1.652-5.414,4.004-7.496,15.839,1.481,39.86,17.659,47.163v9.204c-3.618,2.559-6.789,.35-9.256-1.634-12.798-10.292-22.868-22.465-23.115-39.918-.103-7.267,.939-14.615,4.621-21.183,2.506-4.471,5.176-5.669,9.002-4.384,1.386,1.237,3.201,1.777,4.776,2.693,1.864,1.085,2.686,2.033,1.728,4.055Z" fill="#5f391c"/>
  <path d="M.213,598.987v-19.43c1.683-2.142,3.418-1.434,5.65-.627,13.361,4.834,22.45,15.223,32.311,24.584,1.138,1.081,1.869,3.174-.128,4.677H7.37c-3.538-2.172-5.656-5.448-7.158-9.204Z" fill="#764822"/>
  <path d="M239.481,.748c.705,10.34-2.123,18.845-12.237,23.565-.735,.427-1.439,1.2-2.218,1.198-1.871-.004-4.196,1.936-5.536-.514-1.21-2.21,1.227-3.185,2.362-4.529,1.076-1.274,2.746-2.378,1.9-4.349-.77-1.794-2.643-2.025-4.319-2.243-4.241-.553-8.467-.249-12.722,.138-9.496,.864-19.002,1.084-28.48-.449-2.056-.333-3.857-.956-5.257-2.534l-.01-.034c-1.835-3.273-1.981-6.705-.97-10.248h3.068c3.247,4.512,8.061,3.718,12.466,3.27,10.01-1.018,20.004-2.047,30.082-1.709,2.449,.082,4.871,.257,7.32,.706,2.282,.418,4.913,.333,6.37-2.267h8.18Z" fill="#472910"/>
  <path d="M.213,4.838c3.013,3.182,6.138,6.266,9.014,9.567,6.431,7.381,14.668,11.811,23.741,14.954,2.263,2.293,1.693,4.11-.882,5.687-8.672,5.309-18.089,4.53-27.517,3.282-2.071-.274-3.126-2.292-4.356-3.833V4.838Z" fill="#764722"/>
  <path d="M477.46,8.078c-1.399-2.325-.799-4.856-.756-7.33h3.068c4.509,4.747,10.302,3.751,15.807,3.24,7.165-.666,14.288-1.89,21.509-1.707,4.654,.118,9.333-.45,13.96,.924,2.339,.695,4.797,.32,5.984-2.457h8.18c-.058,4.367,.308,8.825-1.509,12.937-2.678,6.058-7.544,9.683-13.748,11.659-1.708,.479-4.131,1.458-4.554-.824-.35-1.889,1.19-4.036,3.081-5.352,1.018-.708,2.187-.731,3.352-.858,.844-.092,1.757-.369,1.6-1.454-.129-.892-.91-1.519-1.765-1.542-1.672-.045-3.347,.101-4.968-.495-4.964-1.775-9.865-1.339-14.741,.373-9.2,.852-18.118-1.557-27.168-2.394-3.017-.279-5.526-2.15-7.331-4.721Z" fill="#462810"/>
  <path d="M579.988,276.83c-4.668-1.22-6.474,1.686-7.688,5.377-5.372,16.344-3.489,31.404,7.766,44.915,5.385,6.464,11.04,12.481,19.339,15.185v9.204c-13.049-6.857-23.725-16.129-30.183-29.687-4.013-8.425-6.013-17.201-4.624-26.567,.909-3.071,1.079-6.298,1.988-9.369,2.85-7.623,7.806-13.274,15.402-16.453,3.175,1.379,1.563,3.353,.654,5.238-.36,1.363-1.633,1.605-2.654,2.158Z" fill="#4a2e13"/>
  <path d="M478.749,608.191c1.861-6.801,7.06-10.698,12.772-13.733,14.934-7.935,36.996-3.463,48.039,9.417,1.108,1.292,2.164,2.614,2.585,4.317h-11.248c-6.04-2.964-12.184-5.509-18.895-6.728-6.433-1.169-12.177,.226-17.38,3.763-2.12,1.441-4.868,1.077-6.671,2.965h-9.203Z" fill="#553318"/>
  <path d="M173.017,608.191c2.491-8.595,9.358-12.567,16.911-15.503,13.898-5.402,34.225-.13,44.009,11.129,1.121,1.29,2.173,2.621,2.476,4.374h-10.225c-10.166-7.614-21.67-7.05-33.321-5.383-3.85,.551-6.412,3.59-9.624,5.383h-10.225Z" fill="#533117"/>
  <path d="M599.405,549.901c-8.148-4.428-10.273-12.849-11.645-20.599-2.226-12.578-.193-24.577,11.645-32.578v53.177Z" fill="#7f6b52"/>
  <path d="M599.405,245.157c-12.22-11.836-17.087-32.935-6.258-49.034,1.571-2.335,4.004-3.646,6.258-5.166v54.199Z" fill="#7f6a52"/>
  <path d="M343.777,608.191c-.988-2.969-2.728-5.409-4.995-7.564-8.636-8.21-17.389-16.224-28.789-20.573-5.913-2.256-11.985-2.009-18.055-1.18-2.688,.367-4.6,2.084-5.438,4.789-.632,1.013-1.425,2.332-2.695,1.696-4.329-2.169-10.016-1.872-12.781-6.914,8.796-7.039,18.854-8.536,29.406-5.782,20.974,5.475,36.746,18.446,49.481,35.528h-6.135Z" fill="#5d381a"/>
  <path d="M43.158,.748c1.096,5.337,1.964,10.725,1.938,16.169-.026,5.455-2.434,6.974-7.075,4.384C28.76,16.131,20.413,9.822,14.528,.748h28.63Z" fill="#784721"/>
  <path d="M347.867,.748c1.115,5.755,3.932,11.23,2.725,17.369-.7,3.558-2.635,5.41-6.051,3.562-9.593-5.187-18.332-11.469-24.282-20.931h27.608Z" fill="#754721"/>
  <path d="M.213,426.163c12.841-5.467,25.715-10.865,35.385-21.56,.961-1.063,1.969-3.146,3.523-2.356,1.87,.95,.773,3.089,.308,4.605-3.194,10.392-10.725,16.753-20.246,20.983-6.213,2.76-12.639,5.038-18.97,7.533v-9.204Z" fill="#978261"/>
  <path d="M.213,120.396c13.255-5.854,26.533-11.67,36.406-22.906,.646-.735,1.402-1.977,2.458-1.273,1.577,1.051,.885,2.761,.454,4.184-2.963,9.774-9.664,16.318-18.619,20.549-6.754,3.191-13.789,5.788-20.699,8.649v-9.204Z" fill="#978360"/>
  <path d="M257.886,608.191c.163-9.603,1.676-18.731,9.061-25.797,5.42-3.617,9.755,.303,14.332,2.164,1.509,.613,2.142,2.063,1.395,3.771-4.584,4.206-6.532,9.599-6.988,15.644-.138,1.836-1.206,3.067-2.463,4.218h-15.338Z" fill="#5d381a"/>
  <path d="M281.353,587.795c-3.819-4.423-8.791-5.769-14.406-5.401,1.074-1.611,2.37-2.992,4.078-3.949,4.851,2.652,10.27,3.619,15.476,5.218,11.49,5.605,19.845,14.742,27.624,24.528h-14.315c-8.609-3.558-12.613-11.934-18.79-18.034-.654-.646-.102-1.612,.334-2.362Z" fill="#452712"/>
  <path d="M599.405,44.721c-10.261-3.47-17.7-10.726-24.041-18.976-5.616-7.308-9.915-15.481-10.725-24.997h7.158c1.183,1.017,2.055,2.219,2.418,3.776,2.641,11.333,11.103,18.303,19.258,25.445,2.044,1.79,4.221,3.411,5.932,5.548v9.204Z" fill="#4d2e14"/>
  <path d="M599.405,35.517c-3.398-.254-6.154-2.009-8.518-4.185-5.478-5.04-11.039-10.046-15.234-16.282-2.893-4.3-4.63-8.981-3.856-14.303h12.27c.337,11.387,9.375,17.554,15.338,25.566v9.204Z" fill="#623a1d"/>
  <path d="M599.405,460.932c-16.443-12.903-16.443-32.345,0-46.018v20.453c-2.136,1.731-1.618,5.026-3.978,6.626-.503,.422,.233,.057,.262,.012,1.012-1.574,2.291-1.698,3.716-.502v19.43Z" fill="#bfaa88"/>
  <path d="M599.405,154.143c-9.37-4.597-14.574-15.616-11.824-26.011,1.971-7.45,5.389-14.212,11.824-18.985v19.43c-1.53,2.066-1.63,4.989-3.776,6.554-.841,.149-.144,.317-.116,.29,1.379-1.3,2.65-.598,3.892,.314v18.407Z" fill="#beab87"/>
  <path d="M281.353,587.795c7.039,5.996,12.664,13.272,18.456,20.396h-26.585c-.231-4.608,.41-9.088,1.547-13.566,.929-3.661,2.783-6.097,6.582-6.83Z" fill="#774923"/>
  <path d="M599.405,26.314c-9.133-3.994-14.156-11.565-17.644-20.418-.923-2.343,.796-3.761,2.307-5.148,5.049,0,12.382-1.986,14.557,.515,2.58,2.967,.733,9.796,.776,14.951,.028,3.366,.005,6.733,.005,10.1Z" fill="#764723"/>
  <path d="M.213,497.747c1.87-.386,2.786,.7,3.553,2.183,2.398,4.635,3.853,9.627,3.316,14.745-.66,6.293-.88,12.566-.607,18.846,.265,6.121,1.569,12.095,4.652,18.881-6.349-1.484-7.395-7.002-10.913-9.66v-44.996Z" fill="#957e60"/>
  <path d="M183.242,608.191c2.437-8.535,9.618-8.543,16.401-8.855,2.687-.123,5.391,.037,8.094-.303,8.147-1.026,13.962,2.755,18.45,9.158h-42.946Z" fill="#734722"/>
  <path d="M.213,190.957c5.164,2.344,5.938,6.969,6.134,11.87,.407,10.17-.8,20.386,.824,30.519,.321,2.003,.902,3.963,1.335,5.95,.341,1.565,1.715,3.612-.369,4.5-1.899,.809-2.751-1.458-3.795-2.7-1.413-1.683-2.756-3.425-4.129-5.142,0-14.999,0-29.997,0-44.996Z" fill="#957e62"/>
  <path d="M487.951,608.191c10.656-13.37,32.055-13.37,42.946,0h-42.946Z" fill="#724621"/>
  <path d="M599.405,600.01q0,8.181-8.18,8.181h-11.248c-5.785-7.235-3.055-17.721,5.76-22.16,6.237,.465,8.868,5.401,11.776,9.815,.79,1.2,1.105,2.837,1.892,4.164Z" fill="#774723"/>
  <path d="M599.405,600.01c-4.112-4.06-8.224-8.12-12.335-12.18-1.911-1.235-4.136-.486-6.193-.971-2.613-.616-4.498,.662-5.746,3.038-2.152,4.101-3.556,8.414-3.277,13.061,.133,2.22-.41,3.884-2.102,5.232h-6.135c.991-4.615,.627-9.378,2.131-13.995,2.54-7.798,7.145-13.685,14.204-17.735,4.608-.956,7.2,3.375,11.152,4.251,3.902,.864,6.546,3.487,8.301,7.027v12.272Z" fill="#482b13"/>
  <path d="M34.987,325.92c6.495,.979,6.343,.953,7.479-5.776,1.14-6.754-.505-12.657-4.122-18.371-9.139-14.433-22.528-23.142-38.13-29.006v-5.113c12.457,4.997,23.174,12.656,32.952,21.705,2.586,2.393,5.587,4.475,6.958,7.952-.735-.39-1.469-.78-2.714-1.441,.134,2.358,1.394,3.723,2.421,5.039,4.088,5.241,6.286,11.092,6.78,17.75,.291,3.929,1.559,8.514-2.225,10.725-3.402,1.988-6.44-1.675-9.399-3.465Z" fill="#5b381a"/>
  <path d="M.213,34.495c8.306,2.762,16.738,2.91,25.144,.75,3.213-.826,6.748-1.772,7.611-5.885,2.726,.39,6.729-1.318,7.824,1.754,1.148,3.22-3.111,4.33-5.145,6.047-7.82,6.601-17.205,7.152-26.859,6.263-2.857-.263-5.717-.499-8.575-.747v-8.181Z" fill="#5e381b"/>
  <path d="M537.032,.748c.61,1.389,1.529,2.73,1.756,4.179,.344,2.197-.658,4.243-3.124,2.881-12.646-6.986-25.529-3.198-38.434-1.353-3.685,.527-7.475,.369-11.219,.425-4.094,.062-6.504-1.704-6.241-6.132,19.087,0,38.174,0,57.261,0Z" fill="#684121"/>
  <path d="M231.301,.748c.36,1.128,.793,2.238,1.066,3.387,.652,2.749-.804,3.696-3.05,2.679-12.952-5.868-25.963-1.991-38.959-.438-4.393,.525-8.74,.817-13.109-.242-3.358-.814-4.261-2.452-2.186-5.387,18.746,0,37.492,0,56.238,0Z" fill="#714522"/>
  <path d="M569.752,608.191c-1.419-6.552-.223-12.673,2.459-18.772,2.84-6.458,6.036-7.683,12.104-3.824,.991,.63,1.84,1.483,2.755,2.233-4.965,1.886-7.528,5.273-7.133,10.79,.227,3.175,.04,6.38,.04,9.572h-10.225Z" fill="#623b1c"/>
  <path d="M120.869,.748c4.927,1.19,9.771,2.807,14.919,2.843,1.106,.008,2.711-.768,3.074,.82,.372,1.625-1.311,2.202-2.466,2.812-8.046,4.247-16.262,2.772-24.248,.109-3.933-1.312-7.954-3.071-10.706-6.584h19.428Z" fill="#927d60"/>
  <path d="M426.6,.748c4.509,2.38,9.605,1.959,14.392,3.012,.967,.213,2.253,.049,2.585,1.223,.435,1.541-.99,2.009-1.992,2.514-4.054,2.042-8.449,2.825-12.888,2.372-8.058-.823-15.562-3.223-21.524-9.121h19.428Z" fill="#937e60"/>
  <path d="M38.046,608.191c-9.869-13.168-21.095-24.543-37.833-28.634v-5.113c6.376,1.505,11.973,4.688,17.209,8.435,10.064,7.202,20.043,14.547,26.759,25.312h-6.135Z" fill="#5c391b"/>
  <path d="M599.405,587.738c-4.504-2.412-8.985-4.929-13.977-6.173-2.888-.72-3.516-3.56-5.476-5.105,5.776-4.407,12.536-5.046,19.453-5.084v16.362Z" fill="#5f3a1b"/>
  <path d="M581.037,274.769c.317-1.778,.634-3.557,.951-5.335,5.188-4.086,11.362-3.685,17.417-3.825v16.362c-1.02,.659-2.05,1.154-3.325,.664-5.317-2.047-10.509-4.326-15.043-7.866Z" fill="#603a1c"/>
  <path d="M391.835,608.191c-1.934-3.49-5.479-3.537-8.78-4.137-1.419-.258-3.488-.081-3.218-2.274,.197-1.607,1.984-1.632,3.312-1.685,5.58-.226,11.281-.715,16.353,2.214,4.099,2.368,9.237,2.391,12.784,5.882h-20.45Z" fill="#927e61"/>
  <path d="M581.037,274.769c6.705,.916,12.625,3.834,18.368,7.202v11.249c-4.082-3.761-8.163-7.523-12.245-11.284-1.688-2.69-4.611-3.643-7.173-5.105,.35-.687,.7-1.374,1.05-2.061Z" fill="#472811"/>
  <path d="M599.405,135.735c-2.589,1.757-5.178,3.514-8.558,5.808,1.405-6.106,4.42-9.905,8.558-12.966v7.158Z" fill="#9d8968"/>
  <path d="M599.405,441.502c-2.525,1.823-5.05,3.645-7.576,5.468l-.931-.926c1.97-4.174,3.768-8.47,8.507-10.677v6.136Z" fill="#9d8965"/>
  <path d="M.213,598.987c2.853,2.705,6.616,4.701,7.158,9.204q-7.158,0-7.158-9.204Z" fill="#4b2912"/>
  <path d="M171.995,.748c.324,3.416,.647,6.832,.97,10.248-2.986-2.965-1.685-6.763-1.993-10.248h1.023Z" fill="#714522"/>
  <path d="M333.817,88.841c15.946,.027,27.337,13.501,23.999,29.698-4.051,19.654-16.545,32.255-35.48,38.549-8.932,2.969-17.648,2.674-26.293-1.404-13.378-6.311-18.351-20.443-12.077-33.911,3.966-8.515,10.5-14.552,17.782-19.948,11.849-8.779,22.531-13,32.07-12.984Z" fill="#c0ab89"/>
  <path d="M358.21,423.481c-.866,12.013-8.862,23.418-20.936,32.204-11.97,8.71-25.198,12.008-39.536,6.745-14.755-5.416-20.603-21.775-13.159-35.778,6.901-12.981,18.54-20.524,31.025-27.12,5.539-2.927,11.359-4.272,17.667-4.238,15.275,.081,24.964,9.548,24.939,28.186Z" fill="#bfac88"/>
  <path d="M373.416,306.164c.018-12.341,7.153-21.9,18.888-23.365,18.811-2.348,36.415,1.432,50.499,15.023,10.797,10.419,7.424,28.611-5.98,35.456-20.284,10.359-41.627,7.067-56.001-8.636-4.902-5.355-7.96-11.429-7.406-18.479Z" fill="#7f6b53"/>
  <path d="M95.447,282.103c14.393,1.659,28.826,3.38,40.064,14.032,15.807,14.983,6.329,32.358-6.596,38.584-17.913,8.629-40.187,4.625-53.507-9.808-6.98-7.563-9.19-16.54-7.128-26.525,1.6-7.745,11.839-15.382,21.549-16.259,1.858-.168,3.744-.024,5.617-.024Z" fill="#7f6b52"/>
  <path d="M182.379,521.381c-11.533-.565-22.524-2.972-31.186-12.104-8.202-8.647-11.154-19.289-7.081-27.809,4.807-10.054,15.605-15.851,27.584-14.122,9.929,1.433,19.648,3.858,28.598,8.746,8.84,4.828,13.351,12.408,14.256,22.188,.649,7.01-8.274,17.708-16.846,20.549-2.581,.855-5.213,1.647-7.884,2.11-2.329,.404-4.746,.303-7.442,.441Z" fill="#7f6b52"/>
  <path d="M185.33,215.802c-19.609-.845-32.967-7.11-40.758-22.554-5.985-11.864,.954-27.933,14.027-30.265,18.527-3.305,35.631,.444,49.98,13.81,9.133,8.508,6.8,29.7-7.607,34.213-6.131,1.92-11.822,5.353-15.642,4.796Z" fill="#7f6b50"/>
  <path d="M487.473,521.289c-12.394-.142-23.412-3.601-31.785-13.365-6.394-7.457-8.975-15.872-6.222-25.534,1.915-6.72,10.324-12.58,17.438-13.83,15.494-2.724,29.226,1.475,42.085,9.568,4.516,2.842,7.863,6.813,9.595,12.156,4.507,13.902-4.632,25.972-19.945,29.937-3.654,.946-7.381,1.187-11.166,1.069Z" fill="#7f6b52"/>
  <path d="M504.254,213.427c-6.011,.929-11.889,2.453-18.121,2.138-13.316-.673-24.758-5.231-32.457-16.324-9.445-13.609-6.498-33.989,14.829-36.944,11.434-1.584,22.26,.968,32.751,5.371,2.35,.986,4.728,1.907,7.092,2.858,4.074,2.86,7.567,6.273,10.104,10.598,3.044,5.19,2.15,6.711-3.42,8.213-7.636,2.059-14.499-.463-21.329-2.915-9.751-3.501-19.065-8.18-29.56-11.135,8.136,3.676,15.809,7.164,23.187,11.292,7.829,4.38,16.162,5.464,24.947,3.168,1.791-.468,3.683-.906,5.634-.884,1.994,.023,2.339,.823,2.626,2.739,1.392,9.312-4.285,14.334-10.916,18.917-1.692,1.169-3.591,1.917-5.368,2.907Z" fill="#816b53"/>
  <path d="M327.414,224.668c.49,8.221-1.112,15.866-7.916,21.915-5.513,4.901-11.479,6.425-18.189,3.326-11.94-5.514-17.411-15.976-19.688-28.074-1.576-8.372,.47-16.478,4.946-23.998,4.131-6.94,9.965-11.001,17.889-10.632,7.766,.362,13.558,4.422,17.389,11.584,4.329,8.093,5.86,16.596,5.569,25.879Z" fill="#806b52"/>
  <path d="M327.433,529.981c.259,8.771-.595,16.948-7.809,22.929-7.569,6.276-16.766,6.294-25.439-1.38-12.775-11.304-19.503-37.01-3.911-52.058,10.416-10.053,24.537-8.213,31.562,4.634,4.437,8.115,5.922,16.928,5.597,25.875Z" fill="#7f6c52"/>
  <path d="M259.942,420.012c-.544,19.221-16.086,36.251-33.772,35.689-11.639-.37-19.588-11.911-16.589-23.127,3.273-12.241,11.455-20.768,21.281-27.681,5.63-3.961,12.549-5.922,19.165-1.679,6.307,4.045,10.757,9.475,9.915,16.797Z" fill="#816b51"/>
  <path d="M227.14,149.221c-13.182-.254-21.067-11.132-17.068-23.859,4.1-13.047,12.341-22.885,24.832-28.204,12.326-5.249,22.503,.779,24.786,13.569,2.36,13.22-8.704,34.616-25.455,37.824-2.322,.445-4.727,.457-7.094,.67Z" fill="#806b51"/>
  <path d="M515.431,436.927c-2.175-12.086,18.805-33.963,29.405-35.937,9.929-1.849,20.229,6.876,20.587,18.197,.518,16.375-10.626,31.551-26.396,35.949-12.888,3.594-24.198-5.134-23.596-18.209Z" fill="#7f6b51"/>
  <path d="M532.401,149.088c-6.246,.955-11.557-2.373-14.863-8.961-3.628-7.23-2.707-14.641,.632-21.576,3.287-6.827,9.029-11.89,14.516-16.927,4.477-4.11,9.878-6.256,16.305-5.871,9.023,.541,15.978,7.014,16.59,16.13,.992,14.797-9.374,30.888-23.281,36.253-2.805,1.082-5.686,.785-9.899,.951Z" fill="#7f6c50"/>
  <path d="M113.667,72.274c7.555-11.338,17.706-18.346,31.747-17.763,12.071,.501,22.145,9.5,25.638,22.848,6.476,24.74-6.081,58.538-33.878,67.564-6.856,2.06-13.726,2.004-20.609,.141-5.056-1.252-9.254-3.781-12.179-8.199-1.228-2.627,1.2-4.279,1.753-6.433,.531-2.07,1.622-4.002,1.414-6.243,.455-6.507,4.108-11.685,7.26-17.011,3.616-6.111,7.953-11.753,12.101-17.515,4.983-6.924,8.477-14.597,11.178-22.651,.44-1.819,2.084-3.646-2.084-3.489-8.619,.325-14.106,4.673-17.977,11.849-1.219,.809-2.451,1.522-3.991,.934-1.74-1.196-1.16-2.604-.371-4.031Z" fill="#482b12"/>
  <path d="M414.08,141.045c-1.324-1.383-2.649-2.766-3.973-4.148-.887-1.602-.751-3.108,.298-4.614,1.745-2.503,2.334-5.393,2.635-8.367,1.728-7,5.09-13.142,9.063-19.15,6.247-9.447,13.436-18.317,18.217-28.701,1.632-3.544,3.217-7.096,3.81-10.987,.383-2.484-1.197-2.655-2.863-2.165-6.891,2.027-13.633,4.36-17.425,11.217-.781,1.413-1.957,2.428-3.439,2.828-2.581,.697-3.069-.497-2.069-2.697,5.916-9.66,13.823-17.136,25.156-19.297,16.562-3.158,31.115,7.594,33.835,25.435,3.439,22.563-2.423,42.511-20.755,57.113-10.845,8.638-23.284,12.734-37.094,6.32-1.676-3.031,.402-3.781,2.537-3.329,6.89,1.457,12.934-3.063,19.811-2.402,2.96,.284,5.877-2.493,8.477-4.391,7.976-5.822,12.994-13.788,16.532-22.903,1.532-3.947,3.015-7.65,.58-11.681,.173-1.317,.488-2.622,.534-3.958,.144-2.644-.376-5.289,.813-7.931,.64-1.423,.866-3.537-.238-4.9-3.612-4.459-4.549-10.484-9.338-14.413-2.745-2.252-2.881-.972-3.523,.995-.806,2.468-.335,5.021-.056,7.494,.216,1.912,.105,3.693-.438,5.495-4.274,13.007-13.687,22.581-22.127,32.751-3.945,4.753-7.315,9.795-10.28,15.162-1.896,1.604-2.125,3.807-2.18,6.075-1.629,2.397-1.124,7.487-6.5,5.151Z" fill="#472a11"/>
  <path d="M428.511,368.517c8.968-7.458,19.071-10.769,30.249-6.334,11.669,4.631,17.749,14.314,18.946,26.373,2.432,24.505-4.945,45.109-26.641,58.672-10.558,6.6-21.948,7.695-33.506,1.969-2.182-1.081-4.073-2.432-5.479-4.43-.191-4.805-1.032-9.635,.561-14.367,1.433-6.777,4.717-12.738,8.567-18.35,4.999-7.287,9.995-14.574,14.728-22.034,3.658-5.767,6.552-11.9,7.968-18.633,.256-1.366-.334-2.216-1.646-2.527-3.545-.839-10.846,2.455-12.417,5.82-1.304,2.794-3.201,4.796-6.09,5.791-3.553,1.224-4.195,.524-3.37-3.536l.802-.972c2.36-2.562,4.912-4.935,7.327-7.442Z" fill="#492a11"/>
  <path d="M116.654,374.844c3.513-4.979,8.153-8.705,13.543-11.352,16.637-8.17,34.77,.179,40.486,18.495,7.298,23.386-4.247,53.2-25.264,65.333-9.813,5.665-20.058,7.182-30.859,3.307-2.72-.976-5.402-2.136-7.103-4.709-3.707-4.476-.892-8.975-.047-13.463,.273-10.473,6.677-18.215,12.01-26.344,5.675-8.649,11.922-16.924,16.246-26.402,.921-2.018,1.717-4.063,2.185-6.228,1.366-5.207,1.374-5.155-3.85-4.341-3.919,.611-7.098,2.622-9.89,5.223-1.377,1.283-2.729,2.654-4.377,3.42-3.08,1.433-4.213,.307-3.08-2.941Z" fill="#4a2b12"/>
  <path d="M345.849,297.312c3.653,4.116,6.358,8.869,9.124,13.581,1.356,3.562,2.315,7.239,3.168,10.947,2.601,18.418-9.715,34.303-28.613,36.471-29.334,3.364-65.733-17.531-70.776-51.906-2.327-15.859,2.026-28.874,18.372-37.844,3.119-.722,6.002-1.321,4.965,3.731-.323,1.575,1.28,3.139,.819,4.925-.088,1.238-.156,2.48-1.196,3.374-1.625,1.262-3.566,1.147-5.314,.741-4.462-1.037-6.401,1.286-8.118,4.953-5.505,11.757-1.727,22.486,4.059,32.512,10.868,18.833,28.001,27.362,49.388,28.132,5.88,.212,10.845-2.285,15.917-4.734,4.041-1.95,4.23-4.91,2.872-8.533,.391-1.039,1.227-1.881,2.233-1.512,3.057,1.12,3.928-.895,4.819-3.047,1.152-.848,2.08-1.442,2.406-3.298,1.349-7.695,0-14.761-4.047-21.303-1.16-1.875-2.404-3.66-3.044-5.78-.319-1.056-.15-2.091,.981-2.53,.964-.374,1.511,.407,1.987,1.121Z" fill="#4c2c13"/>
  <path d="M429.622,218.591c14.561,12.901,11.009,32.802-7.136,39.978-20.528,8.119-47.628-2.119-56.098-21.507-4.059-9.292-4.141-18.498,3.15-26.636,2.043-2.047,4.216-1.768,6.464-.377,2.153,1.332,4.386,1.594,6.708,.439,8.438,1.593,15.09,6.938,22.426,10.813,5.12,2.704,10.302,5.278,15.483,7.851,2.411,1.198,4.989,2.352,7.798,1.143,2.365-.853,1.239-2.384,.642-3.683-.842-1.833-1.906-3.594-2.452-5.525-.793-2.803,0-4.09,3.012-2.496Z" fill="#4c2e14"/>
  <path d="M376.277,187.798c-5.864-.664-12.712-2.265-18.135-7.623-9.868-9.748-6.386-24.198,7.135-27.241,9.515-2.141,19.323-1.959,28.361,2.904,1.326,.713,2.626,1.616,3.669,2.692,8.112,8.372,6.514,18.911-3.667,24.6-4.427,2.473-11.865,4.642-17.362,4.667Z" fill="#beab89"/>
  <path d="M244.692,52.36c-.225,15.373-18.18,29.242-33.289,25.713-12.154-2.838-16.429-16.047-8.341-25.931,5.76-7.039,13.084-11.834,21.754-14.495,10.995-3.374,20.042,3.372,19.876,14.713Z" fill="#bfaa89"/>
  <path d="M70.807,187.891c-6.141-.442-12.57-2.261-17.821-7.127-5.184-4.804-7.336-10.686-5.252-17.547,2.026-6.671,7.742-9.779,13.834-10.689,9.106-1.361,18.162-.779,26.841,3.628,9.163,4.654,10.699,17.836,3.229,24.007-5.927,4.897-12.389,7.579-20.832,7.727Z" fill="#bfab88"/>
  <path d="M374.157,457.789c7.715,.125,13.861,1.053,19.543,4.225,10.418,5.817,11.604,17.677,2.463,25.28-10.926,9.089-29.03,8.269-38.678-1.887-3.94-4.148-6.279-9.17-4.539-14.907,1.907-6.287,6.285-10.388,12.927-11.716,3.179-.636,6.368-1.169,8.283-.995Z" fill="#c0ab88"/>
  <path d="M215.636,384.301c-6.762,.21-12.576-2.158-15.648-9.569-2.986-7.204-.437-13.144,4.417-18.069,7.351-7.458,15.437-13.95,26.891-13.473,7.681,.32,13.065,5.589,13.396,13.182,.636,14.554-12.97,27.941-29.056,27.93Z" fill="#bfaa88"/>
  <path d="M522.202,384.316c-6.729,.347-12.638-2.145-16.108-8.682-2.951-5.559-.841-14.158,4.575-19.651,4.682-4.748,9.958-8.716,16.33-11.037,6.928-2.524,13.67-3.159,19.544,2.336,5.96,5.576,4.772,12.338,2.348,18.92-3.652,9.918-15.702,18.061-26.689,18.115Z" fill="#bfab89"/>
  <path d="M550.478,51.544c-.1,16.613-18.266,30.479-34.171,26.084-10.738-2.967-15.353-15.063-8.634-24.045,6.382-8.532,14.826-14.538,25.584-16.536,9.613-1.785,17.279,4.75,17.221,14.497Z" fill="#beab88"/>
  <path d="M59.414,523.156c1.308-2.058,1.824-4.62,3.928-6.171,4.216-1.336,8.45-2.086,12.75-.388,6.45,1.095,12.305,3.756,17.67,7.365,6.228,4.189,12.898,7.492,19.712,10.524,2.521,1.122,5.898,3.265,7.871,.437,1.973-2.828-1.612-5.01-3.036-7.369-1.373-2.275-5.376-2.999-4.066-6.867,1.253-2.775,2.834-1.599,4.42-.375,9.028,6.28,15.527,14.146,13.851,25.898-1.594,11.174-9.455,17.01-19.63,19.732-17.807,4.764-37.686-2.294-48.792-16.839-1.67-2.186-3.055-4.496-3.65-7.216-2.815-6.108-1.512-12.442-1.029-18.731Z" fill="#4e2d14"/>
  <path d="M62.226,240.162l-1.798-4.004c-1.941-3.995-1.37-8.277-1.412-12.486-.01-.991-.196-2.238,1.116-2.507,1.378-.283,2.21,.584,2.599,1.874,.246,.816,.409,1.654,.534,2.492,2.851,19.181,21.761,28.286,35.993,27.166,5.846-.46,11.926-.319,17.243-3.661,1.45-.911,2.884-1.782,4.036-3.055,.67-.741,1.687-1.42,1.382-2.549-.319-1.18-1.598-.91-2.483-1.284-3.346-1.414-6.656,.744-9.956-.094-9.69-3.507-18.101-9.243-26.255-15.347-3.445-2.579-7.094-4.625-11.059-6.212-1.628-.873-3.193-1.835-4.944-2.461-1.852-.662-3.356-1.788-2.981-4.033,.435-2.603,2.583-2.89,4.63-2.795,2.359,.11,4.668,.162,6.914-.642,7.406,.566,13.396,4.574,19.456,8.26,8.453,5.141,17.273,9.443,26.623,12.646,3.346-.452,4.549-2.211,3.134-4.754-.394-.709-1.189-1.198-1.678-1.888-.957-1.349-1.49-2.982-.169-4.162,1.733-1.548,2.62,.482,3.682,1.396,.512,.441,.77,1.114,1.22,1.626,.658,1.082,1.317,2.163,1.975,3.245,3.156,6.739,3.288,13.486,.054,20.241-5.477,9.859-14.655,13.289-25.113,13.855-14.318,.775-27.062-3.228-37.295-13.772-1.862-2.33-3.496-4.833-5.449-7.093Z" fill="#472b11"/>
  <path d="M377.554,354.601c9.775-.072,19.066,6.277,22.521,15.164,1.817,4.674-1.526,11.388-6.891,13.84-9.323,4.261-26.758-1.885-31.191-10.995-2.731-5.613-1.034-11.094,4.784-14.783,3.35-2.125,7.034-3.416,10.777-3.226Z" fill="#816c51"/>
  <path d="M74.281,354.49c6.729,.757,13.457,4.198,18.215,10.637,2.895,3.917,3.126,8.84,.641,13.096-3.293,5.638-9.017,7-15.073,6.605-4.428-.289-8.699-1.641-12.779-3.435-7.354-3.233-10.677-8.579-9.749-15.571,.672-5.066,7.18-10.303,13.851-11.101,1.18-.141,2.38-.119,4.895-.231Z" fill="#826c51"/>
  <path d="M79.679,78.484c-6.341,.139-12.091-2.026-17.503-4.965-4.497-2.442-6.853-6.393-6.737-11.744,.113-5.22,3.075-8.217,7.125-10.966,10.102-6.858,26.783,1.454,30.268,9.002,4.506,9.759-.15,19.02-13.152,18.674Z" fill="#826c52"/>
  <path d="M384.524,78.462c-5.192,.412-10.125-1.518-14.836-3.861-6.042-3.004-9.219-8.82-8.353-14.375,.769-4.929,6.415-10.082,12.484-11.395,8.44-1.826,19.954,3.178,24.243,10.535,5.462,9.369,.627,18.417-10.21,19.088-1.014,.063-2.035,.008-3.328,.008Z" fill="#826c52"/>
  <path d="M418.503,517.047c5.676,2.767,10.83,6.228,14.76,11.271,8.68,11.136,6.678,24.647-4.859,32.628-1.796,1.242-3.738,2.272-5.613,3.399-3.026,1.29-6.384,1.028-9.472,2.027l.066-.03c-3.845,.704-7.692,.663-11.539,.025l-.403,.042-.395-.087c-3.148-.726-6.372-1.087-9.486-1.976-9.072-2.358-16.173-7.482-21.392-15.248-.156-4.172,1.986-3.43,4.438-2.09,3.73,2.038,6.496,5.339,10.177,7.517,4.036,2.388,8.08,4.034,12.83,4.182,2.974,.093,6.054,.096,8.928,.832,8.751,2.24,14.971-2.238,20.892-7.531,2.254-2.015,2.402-3.761-1.312-4.058-7.783,1.52-14.44-.923-21.249-4.719-9.786-5.456-17.854-13.614-28.468-17.68-2.121-1.971-5.616-3.456-4.583-6.98,1.236-4.215,5.095-1.649,7.784-2.142,.984-.181,1.978-.306,2.944,.055,7.421,1.593,13.875,5.218,20.071,9.476,5.899,4.053,12.486,6.84,19.018,9.677,1.789,.777,4.097,2.044,5.641,.041,1.68-2.18-.253-4.089-1.447-5.915-2.285-3.494-5.687-5.768-8.882-8.29-1.186-.936-2.385-2.168-1.495-3.912,.702-1.374,1.885-1.179,3.044-.512Z" fill="#472811"/>
  <path d="M500.488,267.903c-9.91-.638-17.818-4.593-22.465-13.909-2.811-5.635-3.31-11.06,1.343-16.033,4.705-5.029,10.709-5.193,16.534-3.29,7.445,2.432,13.398,7.35,17.768,13.891,2.777,4.158,2.639,8.756,.393,13.093-2.826,5.456-7.87,6.55-13.573,6.247Z" fill="#bfaa88"/>
  <path d="M193.495,267.988c-8.014-.59-16.26-4.211-20.957-13.496-2.571-5.082-2.933-10.516,.272-15.508,3.721-5.795,9.636-6.124,15.438-4.667,7.226,1.814,13.221,6.141,18.174,11.624,4.166,4.613,4.723,10.167,1.927,15.661-2.626,5.159-7.536,6.449-14.853,6.387Z" fill="#bfab89"/>
  <path d="M490.981,539.623c9.481,1.218,18.081,6.792,23.464,16.275,4.519,7.961-1.098,16.858-10.704,18.37-11.656,1.835-24.925-7.422-27.213-18.986-1.71-8.641,3.98-15.574,14.454-15.659Z" fill="#bfaa89"/>
  <path d="M170.906,552.863c-.186-8.371,4.944-13.815,13.183-13.15,10.973,.886,19.128,6.908,24.452,16.176,4.211,7.332-.168,15.83-8.386,17.884-13.538,3.384-28.954-7.637-29.249-20.911Z" fill="#c0ab8a"/>
  <path d="M479.653,300.115c3.651-9.44,12.119-12.665,20.686-14.595,11.386-2.565,22.391-.092,32.2,6.338,7.6,4.982,13.003,11.605,12.589,21.356-.444,10.451-8.037,15.013-16.179,19.016-1.958,.807-4.05,.033-6.036,.51-1.277,.307-2.476,.282-2.73-1.321-.222-1.4,.705-2.177,1.911-2.634,1.592-.603,3.152-1.283,4.614-2.148,1.59-.94,3.644-1.821,3.055-4.122-.508-1.985-2.555-2.083-4.235-2.095-6.615-.05-13.223-.355-19.84,.476-6.235,.783-12.539,1.239-18.515-1.605-1.942-1.01-4.292-1.094-5.966-2.677-1.152-1.09-2.06-2.322-1.498-4.003,.485-1.452,1.674-2.011,3.147-2.084,2.358-.116,4.701-.486,7.068-.425,7.614-.139,15.006-2.18,22.566-2.703,7.174-.496,14.495-1.498,20.973,3.004,4.231,.934,3.625-1.754,2.517-3.874-3.35-6.409-8.699-10.544-15.547-12.869-8.215-2.788-16.322-4.276-24.724-.421-4.796,2.2-8.568,5.422-11.904,9.361-1.22,1.441-2.211,4.189-4.697,2.48-2.192-1.507,.097-3.31,.543-4.967Z" fill="#482a12"/>
  <path d="M418.503,517.047c-1.895,2.497,.773,2.881,1.893,3.626,4.216,2.803,7.452,6.506,9.89,10.824,1.324,2.346,2.281,5.311,.264,7.708-2.083,2.477-4.738,.899-7.071,.013-8.288-3.15-16.203-7.01-23.637-11.913-4.932-3.253-9.847-6.797-16.12-7.126-1.034-.623-2.249-.654-3.366-1.007-1.85-.585-3.745-1.286-3.745-3.528,0-2.443,2.175-3.316,4.04-3.843,1.469-.416,3.034-.67,4.298-.994-1.67-.043-3.931,2.324-5.412-.823,5.085-2.742,10.661-2.465,15.897-1.464,8.084,1.546,16.237,3.385,23.07,8.527Z" fill="#774724"/>
  <path d="M216.147,287.003c5.927,1.415,10.967,4.507,15.414,8.526,12.831,11.598,9.729,29.006-6.285,35.662-2.385,.85-4.752,1.64-7.375,1.469-1.275-.083-2.91,.875-3.411-1-.513-1.918,1.027-2.616,2.538-3.179,1.436-.535,2.799-1.247,4.017-2.175,1.338-1.02,3.029-2.056,2.344-4.065-.579-1.7-2.372-1.815-3.887-1.822-6.778-.032-13.566-.508-20.326,.477-5.601,.816-11.161,.818-16.558-1.295-1.107-.45-2.255-.691-3.402-.947-2.941-.655-5.82-1.874-5.574-5.333,.251-3.53,3.589-2.739,5.949-3.089,8.054,.347,15.938-1.208,23.829-2.428,8.922-1.38,17.588-.97,26.021,2.28,2.934-2.855,.971-5.149-.832-7.418-4.287-5.395-10.463-7.941-16.596-10.124-11.76-4.188-22.317-1.518-31.721,6.636-3.549,3.078-3.964,2.791-5.39-.992,2.715-6.407,9.055-8.129,14.395-11.144,8.947-2.289,17.897-2.156,26.85-.039Z" fill="#4a2b11"/>
  <path d="M172.975,11.03c16.739,2.402,33.553-.742,50.295,.702,2.356,.203,5.693-.356,6.4,2.917,.684,3.164-2.188,4.665-4.26,6.377-1.262,1.042-2.522,2.087-3.94,3.26,2.301,1.555,4.004-.089,5.773,.027-1.356,1.829-3.499,2.082-5.448,2.475-13.166,2.652-26.095,1.916-38.258-4.069-4.838-2.38-9.229-5.824-10.563-11.689Z" fill="#714522"/>
  <path d="M76.939,213.382c-3.132,.352-6.369-.517-10.224,.977,2.726,2.21,6.317,1.703,8.202,4.133-.033,.341-.026,.745-.238,.976-5.048,5.503-5.54,9.846-.82,15.85,5.331,6.781,12.259,11.169,21.23,11.346,4.235,.083,8.482,.233,12.709-.16,1.658-.154,3.744-.154,4.43-1.908,.669-1.711-1.522-1.881-2.391-2.783-.832-.864-.882-1.758-.247-2.734,3.891,.194,7.781,.448,11.675,.551,1.532,.04,3.217-.404,3.947,1.424,.637,1.596-.235,2.976-1.158,4.23-2.919,3.967-6.765,6.909-11.453,8.104-16.066,4.095-31.011,2.593-43.535-9.656-5.493-5.373-7.424-12.339-8.905-20.707-1.306,5.231,.085,9.163,.265,13.135-5.946-14.005-.908-30.81,18.389-33.054,3.823-.58,7.644-.693,11.459,.061,2.369,.725,4.739,1.451,7.108,2.176,.899,.705,2.701,.281,2.683,2.137-1.19,2.918-3.516,1.916-5.581,1.533-3.299-.612-6.549-1.427-9.964-.752-3.283,.649-6.096,1.873-7.584,5.123Z" fill="#5c381b"/>
  <path d="M379.536,509.983c4.003,.408,7.907-1.67,12.579-.359-2.25,1.941-4.815,1.784-6.959,2.603-2.173,.83-5.063,1.176-5.641,3.687-.659,2.864,2.888,2.705,4.206,4.265-1.942-.326-3.885-.649-5.827-.978-1.084-.184-2.456-1.052-3.133,.232-.728,1.38,.791,1.921,1.689,2.563,.669,.478,1.39,.884,2.088,1.322-3.958,5.56-4.277,11.13-.402,16.952,4.415,6.634,9.888,11.737,18.057,12.979,3.017,.459,6.092,.583,9.12,1.082,8.751,1.442,15.484-2.241,21.206-8.439,2.07-.078,4.643-1.507,5.732,1.48,1.009,2.768-.246,5.013-2.598,6.557-4.116,2.704-8.203,5.474-12.472,7.92-5.43,3.111-10.961-.422-16.49-.166-9.392,.434-16.889-4.18-23.885-9.864-1.891-1.537-3.585-3.879-6.636-2.722-11.732-14.989-7.407-33.054,9.366-39.114Z" fill="#553218"/>
  <path d="M47.128,475.381c-.687-6.026,1.802-10.597,6.649-13.918,8.626-5.911,29.255-4.056,37.289,2.611,8.536,7.084,6.14,19.529-2.228,24.707-3.916,2.423-8.117,4.343-12.947,4.025-2.562-1.205-1.98-2.799-.483-4.41,.817-.879,1.984-1.294,2.983-1.934,1.368-.876,3.72-1.316,3.312-3.336-.363-1.798-2.567-1.102-3.995-1.343-3.881-.654-5.245-2.775-3.933-6.534,1.72-2.064,4.026-1.487,6.142-1.18,2.711,.393,5.368,.348,8.031-.041-9.784,1.039-18.708-3.014-27.696-4.849,2.357,1.907,8.715-1.194,7.535,5.882-.383,.598-.966,1.18-1.599,1.122-6.341-.582-12.708-.496-19.059-.801Z" fill="#bfaa88"/>
  <path d="M570.725,234.826c-2.997,5.432-6.227,10.679-12.783,12.369-7.559,1.948-15.362-1.546-20.153-8.858-9.339-14.254-6.29-35.998,6.359-45.353,1.567-.798,3.26-2.773,4.868-.655,1.536,2.022-.556,3.485-1.811,4.682-10.183,9.71-10.969,21.154-6.414,33.646,1.218,3.34,3.16,6.059,6.371,7.777,2.147,1.148,2.928,.145,3.109-1.862-1.959-5.661-.678-11.224,.815-16.658,1.835-6.679,4.443-13.137,5.919-19.927,1.213-3.68,1.38-6.712-3.85-6.849-1.245-.033-2.317-.876-2.218-2.308,.122-1.766,1.685-1.187,2.737-1.47,3.045-.818,5.972-.114,8.908,.578l.016,.006c3.533,2.547,3.389,6.466,3.798,10.169,1.781,7.332-1.741,13.893-3.204,20.728-.777,3.631-1.508,7.257-2.032,10.925-.164,1.147-.252,2.528,.993,3.176,1.507,.785,2.501-.405,3.498-1.298,.376-.337,.699-.734,1.006-1.137,.996-1.311,1.908-3.376,3.888-2.14,1.673,1.045,.936,2.923,.18,4.461Z" fill="#4b2d13"/>
  <path d="M487.965,317.707c11.544,2.538,23.079-.858,34.624-.054,2.546,.178,5.113,.051,7.657,.246,2.071,.159,4.285,.626,4.993,2.883,.777,2.479-.898,4.187-2.662,5.622-2.793,2.272-6.157,3.518-10.217,5.336,2.734,.204,4.662,.347,6.589,.491-11.437,3.373-22.723,2.159-33.941-1.117-.641-2.387-3.076-2.526-4.689-3.672-2.161-1.535-4.262-3.111-5.733-5.337-.826-1.25-1.916-2.68-.762-4.195,1.172-1.538,2.722-.796,4.142-.203Z" fill="#744722"/>
  <path d="M184.261,317.724c10.111,2.498,20.216-.905,30.334-.039,3.364,.288,6.779,.035,10.13,.401,1.912,.209,4.325,.484,4.828,2.969,.435,2.149-1.321,3.331-2.787,4.472-2.92,2.272-5.79,4.634-9.724,6.005,3.076,1.009,5.619-.532,8.236-.342-4.196,2.577-8.977,2.847-13.636,2.954-7.235,.167-14.475-.253-21.347-2.979-.271-1.711-1.719-1.953-2.998-2.309-2.852-.794-5.007-2.658-6.729-4.858-1.207-1.542-3.301-3.341-1.828-5.589,1.33-2.029,3.566-1.266,5.522-.686Z" fill="#754723"/>
  <path d="M265.098,540.692c-3.337,7.562-8.666,12.81-17.288,12.941-8.459,.128-14.104-4.994-17.302-12.216-5.294-11.953-5.624-24.006,1.559-35.568,1.127-.9,2.09-2.653,3.831-1.292,1.955,1.529,.945,3.488,.128,5.082-3.984,7.781-4.27,15.772-1.765,24.015,1.295,4.261,3.411,7.994,6.741,10.976,.776,.695,1.691,1.55,2.837,1.03,1.467-.666,.996-1.935,.652-3.085-1.234-4.13-1.595-8.315-.813-12.576,2.768-10.17,7.688-19.653,9.572-30.119,3.671-2.815,5.973-2.271,6.878,1.783,.531,2.379,.758,4.834,1.092,7.242-.302,7.345-3.074,14.145-4.811,21.173-.572,2.312-1.107,4.603-1.068,6.984,.024,1.469-.446,3.304,1.278,4.054,1.761,.766,2.767-.769,3.708-1.932,.986-1.218,1.929-2.565,3.727-1.792,1.455,.626,1.876,1.825,1.044,3.299Z" fill="#4b2b12"/>
  <path d="M74.86,476.219c2.14,4.063,5.957,2.922,9.382,3.052,1.41,.053,3.33-.979,4.043,.895,.7,1.84-.855,3.104-2.155,4.17-2.071,1.698-4.002,3.603-6.586,4.585-1.827,.694-3.121,1.943-3.653,3.883-11.365,3.568-29.122-5.98-28.762-17.425,2.641-3.01,5.382-4.517,9.708-2.723,3.004,1.246,6.598,1.071,9.928,1.53,3.839-3.303,5.832-2.803,8.095,2.032Z" fill="#c0ac8a"/>
  <path d="M487.965,317.707c-3.093,.872-1.764,2.711-.815,4.26,2.023,3.302,5.31,5.066,8.634,6.756,.683,.347,1.929,.544,1.455,1.585-.229,.503-1.456,.552-2.232,.806-13.783-4.777-20.555-15.332-17.446-27.082,.399-1.509,.853-2.897,2.091-3.915,0,.832,0,1.664,0,3.724,5.635-8.587,12.698-13.94,22.047-14.964,13.194-1.446,24.833,2.101,33.763,12.513,2.05,2.391,3.093,5.275,3.432,8.364,.177,1.616,.812,3.669-1.025,4.626-1.62,.843-2.725-.837-3.921-1.705-4.082-8.086-10.136-13.04-19.36-15.172-6.865-1.587-12.587-.83-18.496,2.34-6.468,3.469-7.807,6.112-6.065,12.845-2.344,1.415-4.909,.312-7.891,.27,1.08,3.314,4.338,2.966,5.83,4.751Z" fill="#5c381a"/>
  <path d="M541.003,548.077c-12.034-13.011-11.522-34.606,.806-47.279,6.953-7.147,21.61-10.007,28.947,2.139,1.081,2.161,1.396,4.07-1.414,5.229-1.54,.635-2.001,2.108-2.378,3.594-.533,2.1-1.748,3.159-4.019,2.503-1.689-.866-1.621-2.418-1.438-3.941,.161-1.342,.244-2.564-1.326-3.141-3.169-3.565-6.536-2.855-10.001-.501-5.855,3.98-9.465,12.762-8.037,19.706,.652,3.172,1.517,6.295,2.749,9.293,1.883,4.581,3.329,5.209,8.175,3.709,3.821,2.355,3.169,6.616,3.641,10.041,.285,2.072-2.544,3.726-4.935,2.219-2.119-1.336-4.936-1.093-6.625-3.413-1.039-1.426-2.728-.647-4.144-.16Z" fill="#543318"/>
  <path d="M229.158,206.112c.898-2.045,.73-4.594,2.858-6.059,1.04-.776,2.023-2.175,3.462-.823,1.843,1.732,.806,3.562-.041,5.356-4.294,9.09-4.005,18.171,.178,27.194,.725,1.564,1.74,2.978,3.002,4.223,1.381,1.362,2.805,3.621,4.661,2.926,2.466-.923,.315-3.243,.275-4.925-.077-3.212-.668-6.417,.07-9.624,3.56-9.897,6.549-19.982,9.896-29.96,3.88-2.657,5.743-2.05,6.319,2.278,.395,2.969,1.758,5.776,1.44,8.836-1.192,6.493-3.549,12.699-4.993,19.148-.484,2.162-1.001,4.301-.979,6.515,.015,1.429-.735,3.392,1.307,3.901,1.752,.437,2.594-1.252,3.498-2.459,.507-.678,.86-1.472,1.427-2.103,1.079-1.202,1.873-3.388,3.906-2.489,2.334,1.032,1.316,2.982,.508,4.658-2.949,7.481-7.326,13.619-15.956,14.711-9.809,1.241-17.606-5.009-20.918-16.218-2.238-8.369-2.69-16.733,.08-25.086Z" fill="#4a2a11"/>
  <path d="M504.254,213.427c3.376-2.836,6.789-5.629,10.112-8.525,1.675-1.46,3.105-3.191,3.838-5.335,.925-2.705,2.613-5.747,.419-8.212-2.23-2.506-4.701,.178-6.959,.93-9.272,3.088-17.845,.922-25.99-3.56-8.657-4.763-17.557-8.927-26.834-12.317-1.15-.42-3.295-.378-2.984-2.124,.318-1.788,2.402-1.561,3.871-1.642,8.515-.472,15.84,3.503,23.32,6.606,9.44,3.917,18.749,8.112,29.165,8.569,2.129,.093,4.692,.565,5.845-1.989,1.057-2.341-.297-4.312-1.729-6.037-2.603-3.136-5.313-6.181-7.98-9.265,9.302,4.657,13.718,11.817,12.931,22.558-.808,11.031-6.21,18.064-17.026,20.344Z" fill="#937e62"/>
  <path d="M184.261,317.724c-3.065,.183-3.841,1.584-2.416,4.331,1.664,3.207,4.4,4.964,7.648,6.26,1.035,.413,4.419,.848,.8,2.851-12.582-3.64-19.55-11.933-19.224-22.706,.118-3.903,1.61-7.203,3.834-10.274,2.239,.982,3.453-.744,4.883-1.864,16.928-13.27,31.417-9.181,47.029,2.177,4.473,3.254,5.795,8.231,6.964,13.248,.272,1.168,.511,2.51-.919,3.095-1.115,.456-1.882-.437-2.591-1.184-4.803-10.6-13.22-15.781-24.599-17.273-12.331-1.618-19.568,2.287-24.271,14.033-.317,.792-.749,1.517-1.212,2.226-1.333,.311-3.486-.521-3.657,1.49-.128,1.507,1.896,1.487,3.083,1.929,1.542,.575,3.099,1.109,4.65,1.661Z" fill="#57351a"/>
  <path d="M563.629,513.099c.31-1.127,.844-2.245,.888-3.382,.132-3.438-.275-7.222,5.256-5.19,.117,.043,.645-1.035,.982-1.59,3.954,4.54,4.275,10.071,4.279,15.689,.005,7.584-.163,15.133-4.306,21.901-1.506-.138-2.03,1.099-2.622,2.049-.631,1.013-1.155,2.106-2.096,2.85-2.254,1.781-4.731,3.878-7.663,2.961-2.956-.924-2.714-4.334-3.077-6.758-.852-5.693,1.306-11.115,2.382-16.603,.581-2.961,1.921-5.788,2.606-8.775,.41-1.786,1.25-3.17,3.372-3.152Z" fill="#734722"/>
  <path d="M281.419,276.836c-.814-.555-1.56-1.415-2.453-1.615-4.39-.98-4.829-2.271-.879-4.908,2.606-1.74-.205-1.379-.964-1.752,12.138-5.296,23.93-3.223,35.364,2.079,11.832,5.486,21.574,13.941,30.872,22.915,1.087,1.049,2.176,2.163,2.489,3.757-3.217,1.93-.128,3.613,.591,4.699,4.585,6.932,6.059,14.486,5.518,22.624-.186,2.794-.858,5.009-4.089,5.393-.237-.08-.474-.161-.713-.24-.37-.348-.611-.772-.755-1.251-.405-.871-.849-1.998-.706-2.73,3.099-15.89-5.873-26.455-16.073-36.371-6.681-6.494-14.78-10.88-23.582-13.708-7.156-2.299-14.039-1.55-19.762,4.048-2.458,.392-3.992-.725-4.859-2.941Z" fill="#5c381a"/>
  <path d="M265.098,540.692c-1.184-1.503-1.949-.587-2.776,.432-.96,1.182-1.871,2.457-3.036,3.405-1.605,1.305-3.577,2.393-5.637,1.393-2.307-1.121-1.677-3.422-1.533-5.444,.51-7.17,2.293-14.071,4.458-20.882,.885-2.783,1.492-5.581,1.37-8.511,.922-1.731,.304-3.593,.434-5.39,.1-1.379,.193-2.796,1.63-3.372,1.5-.602,2.357,.329,3.154,1.586,.574,.906,1.44,1.957,2.866,1.159,2.73,2.98,3.005,6.802,3.128,10.468,.291,8.618,.355,17.27-4.059,25.158Z" fill="#724622"/>
  <path d="M265.951,232.705c-.22-1.347-.205-3.364-2.055-.932-1.327,1.744-2.298,3.793-3.778,5.379-1.669,1.788-3.562,4.334-6.387,2.855-2.462-1.289-1.817-4.084-1.591-6.451,.663-6.937,2.473-13.619,4.431-20.274,.571-1.941,.931-3.945,1.387-5.92,.911-1.904,.297-3.923,.418-5.884,.104-1.681,.024-3.5,1.673-4.423,1.765-.987,2.694,.555,3.768,1.64,.593,.599,1.518,.528,2.347,.327,5.255,11.261,3.866,22.481-.213,33.683Z" fill="#764722"/>
  <path d="M570.726,234.826c-.068-.502-.024-1.058-.232-1.493-.319-.669-.771-.345-1.134,.046-1.613,1.738-3.176,3.527-4.85,5.204-1.204,1.206-2.56,2.432-4.466,1.648-2.089-.86-2.47-2.776-2.174-4.689,.804-5.184,1.568-10.391,2.75-15.495,1.45-6.263,3.675-12.354,3.959-18.862-.933-1.944-.029-3.252,1.673-3.937,1.788-.72,2.781,.81,3.689,1.937,.883,1.096,1.328,2.584,3.005,2.811,3.564,7.088,2.136,14.56,1.367,21.875-.397,3.783-1.082,7.738-3.589,10.955Z" fill="#714723"/>
  <path d="M266.165,199.022c-.349,1.22-.962,2.645-2.388,1.699-4.366-2.894-4.742-.185-4.964,3.2-.076,1.16-.559,2.294-.855,3.439-.06-3.145-.012-6.299-.225-9.434-.116-1.709-.497-3.69-2.977-1.783-1.237,1.504-2.868,2.138-4.739,2.672-11.432,3.266-17.284,20.624-10.332,30.37,.492,.689,.937,1.589,1.882,1.499,1.309-.124,1.256-1.348,1.507-2.304,.496-1.884-.3-5.061,3.571-3.67,.106,4.891-.334,9.792,1.147,14.619,.935,3.048-.768,3.671-3.343,2.623-6.171-2.512-10.516-6.834-12.257-13.327-2.192-8.173-2.511-16.35,.856-24.379,.653-1.557,2.34-3.549-1.031-4.194,3.778-6.325,9.042-10.542,16.568-11.289,8.281-.823,14.029,2.88,17.581,10.258Z" fill="#5a371a"/>
  <path d="M266.029,505.065c-.342,1.182-.921,2.614-2.286,1.392-4.507-4.032-4.536-.228-5.152,2.759-.132,.639-.427,1.245-.646,1.867-.059-2.636,.019-5.286-.224-7.905-.172-1.858-.823-3.566-2.965-1.263-1.235,1.479-2.785,2.445-4.678,2.834-11,2.257-16.524,20.005-10.531,30.048,.517,.867,.963,2.103,2.046,2.045,1.659-.089,1.223-1.711,1.518-2.779,.509-1.84-.375-5.086,3.533-3.582,.153,4.9-.383,9.819,.86,14.685,.76,2.975-.979,3.664-3.506,2.898-2.832-.858-5.21-2.433-6.929-4.902-7.386-10.607-7.85-21.957-3.702-33.839,.477-1.368,2.93-3.756-1.3-3.475,3.189-5.28,7.69-8.971,13.592-10.749,8.165-2.46,13.915,.424,20.37,9.966Z" fill="#593719"/>
  <path d="M116.654,374.844c1.751,2.417,2.694,.251,3.969-.631,4.561-3.156,9.079-6.564,14.789-7.227,6.359-.739,7.558,1.113,4.96,7.079-14.397-2.95-23.923,8.79-29.531,19.977-2.981,5.947-4.8,12.269-6.257,18.724-1.657,7.34,.833,13.597,4.954,19.452-.694,4.567-1.387,9.134-2.081,13.702-7.114-5.356-9.571-12.952-10.118-21.383-.947-14.598,4.907-27.224,11.792-39.485,2.07-3.687,4.11-7.474,7.523-10.206Z" fill="#5d381b"/>
  <path d="M415.325,124.475c-.647,4.599-.122,9.691-5.217,12.422-7.63-8.672-8.511-18.949-6.494-29.619,2.288-12.106,7.261-23.15,14.72-33.018,2.29,2.031,2.969-.436,3.82-1.555,4.891-6.432,11.798-9.528,19.181-11.878,3.977-1.266,5.898,.19,5.637,4.399-1.379,1.751-3.366,2.212-5.408,2.415-9.649,.959-15.976,6.66-21.064,14.371-6.326,9.588-10.467,19.767-9.793,31.528,.244,4.26,1.374,8.01,4.618,10.937Z" fill="#613a1c"/>
  <path d="M420.382,376.931c1.533,3.92,2.822,.681,3.75-.295,4.768-5.015,10.024-9.057,17.227-9.693,3.691-.326,5.956,.938,5.594,5.084-1.12,1.276-2.611,1.455-4.186,1.473-10.289,.117-17.112,5.959-22.386,13.977-3.851,5.854-6.221,12.513-8.782,18.974-2.375,5.993-1.401,12.433-.034,18.629,.475,2.154,1.564,4.158,3.792,5.172-1.37,4.776,.033,10.178-3.277,14.516-8.364-7.922-10.445-17.958-8.88-28.776,2.102-14.531,8.596-27.297,17.183-39.06Z" fill="#5d3a1d"/>
  <path d="M563.629,513.099c-1.676,6.866-3.355,13.731-5.025,20.598-.279,1.146-.756,2.305-.734,3.451,.054,2.878-1.867,6.895,1.468,8.236,2.893,1.163,6.104-.894,8.186-3.739,.707-.966,1.522-2.541,3.204-1.118-2.848,4.284-4.727,9.425-10.135,11.442-6.753,2.319-12.863,.641-18.657-3.002-.311-.297-.622-.593-.933-.89,1.528-2.34,3.414-2.355,5.614-.956,1.269,.807,2.612,1.508,3.961,2.175,3.18,1.572,4.542,.615,3.688-2.883-.475-1.947-1.246-3.821-1.883-5.728-3.031,.209-3.323-1.84-3.083-4.011,.446-4.031,.531-8.126,2.057-11.989,1.995-5.05,3.424-10.298,5.247-15.407,.616-1.725,.826-4.344,3.918-3.364,.545-1.361,1.089-2.722,1.961-4.901,1.715,4.464,.901,8.335,1.146,12.085Z" fill="#482711"/>
  <path d="M109.566,124.457c-.996,4.441,1.217,10.223-5.181,12.408-7.982-8.817-8.376-19.521-6.356-30.181,2.387-12.599,7.946-24.066,15.638-34.411,.341,1.026,.683,2.052,1.024,3.079,2.824,1.014,1.539,2.767,.859,4.488-2.119,5.361-6.008,9.827-7.894,15.266-2.839,8.188-5.287,16.477-1.413,25.08,.763,1.695,1.409,3.474,3.322,4.27Z" fill="#60391c"/>
  <path d="M552.383,236.971c.714,1.327,1.932,2.744,.62,4.173-1.248,1.359-2.912,.641-4.272-.041-3.393-1.704-6.392-3.853-8.194-7.394-6.271-12.326-5.957-27.614,4.383-37.91,.759-.755,2.236-1.359,1.598-2.776-.138-.307-1.546-.041-2.369-.039,5.621-4.186,11.593-6.242,18.434-3.047-2.864,0-5.727,0-8.59,0,7.451,2.201,8.16,3.456,5.579,10.254-7.62-.87-11.448,1.37-15.219,8.907-4.623,9.24-.751,22.681,8.031,27.874Z" fill="#5c381b"/>
  <path d="M429.622,218.591c-2.877,3.141,.628,5.198,1.401,7.662,.906,2.888,3.034,5.776-1.407,7.588-1.094-1.065-2.142-2.119-2.571-3.695-2.931-10.775-11.546-15.475-20.962-18.935-5.055-1.858-10.405-3.056-15.97-2.399-3.242,.382-5.897,1.474-7.433,4.532-4.875,1.254-8.697-2.233-13.141-2.918,3.875-5.102,9.364-7.437,15.424-7.794,17.068-1.005,31.921,4.625,44.66,15.959Z" fill="#603d1e"/>
  <path d="M477.46,8.078c11.262,5.09,23.208,3.966,35.042,3.859,1.374,3.201-1.033,3.328-3.009,3.496-3.876,.329-7.774,.031-11.659,.195-1.143,.048-2.646-.095-3.001,1.308-.369,1.459,1.034,2.034,2.096,2.428,8.79,3.256,17.787,3.69,26.807,1.294,2.88-.765,5.403-2.504,3.526-6.336-.413-.844,.074-1.633,.566-2.343,1.349,.041,2.703,.023,4.046,.139,1.572,.136,3.027,.604,3.623,2.284,.639,1.801,.075,3.409-1.269,4.593-1.768,1.559-3.837,2.786-5.548,4.398-2.664,2.511,.658,1.41,1.276,1.951-2.168,1.243-4.471,2.042-6.991,2.125-4.592,.62-9.184,.624-13.776-.003-10.782,.361-20.167-2.814-27.572-10.943-2.19-2.404-3.88-5.084-4.155-8.444Z" fill="#684121"/>
  <path d="M76.896,519.221c-4.605-.219-9.112-1.031-13.554-2.236,7.521-8.813,17.431-10.103,27.86-7.97,9.777,2,19.009,5.826,27.461,11.297-1.114-.112-2.252-.298-2.916,.958-1.771,2.19-3.667,.897-5.465,.12-5.265-2.275-10.545-4.528-16.134-5.866-6.293-1.506-12.423-1.829-17.252,3.697Z" fill="#603c1e"/>
  <path d="M414.08,141.045c3.634-.677,1.693-5.078,4.299-6.441,1.081-.115,1.933,.419,2.849,.894,6.831,3.54,13.019,3.243,20.152-.642,11.216-6.109,18.062-15.293,23.008-26.479,1.029-2.327,.947-4.941,1.755-7.293,.666-1.938,1.71-4.037,4.445-2.175-.212,20.981-16.764,40.398-37.051,43.542-2.559,.397-5.043,.285-7.569-.154-2.349-.408-4.766-.819-6.493,1.533-2.389,.215-3.732-1.598-5.396-2.786Z" fill="#60391b"/>
  <path d="M99.393,207.332c-.67-.664-1.339-1.327-2.009-1.991,12.396,2.482,23.441,7.222,30.669,18.346-.978-.593-1.957-1.186-3.774-2.287,1.429,4.482,4.354,8.059,1.678,12.028-1.038,1.54-2.625,1.225-4.121,.579,.002-9.733-5.087-15.818-13.759-19.457-2.341-.983-4.79-1.79-6.903-3.285-1.376-.974-3.193-1.711-1.782-3.933Z" fill="#5b391a"/>
  <path d="M572.947,201.996c-.255,2.2-.565,3.558-2.592,.811-1.348-1.826-2.805-4.88-5.775-1.622-1.717-3.561-.306-7.674-1.981-11.242,5.557,2.208,8.783,6.418,10.348,12.053Z" fill="#5c381b"/>
  <path d="M229.158,206.112c-1.366,8.357-1.18,16.719-.08,25.085-3.234-8.371-3.754-16.735,.08-25.085Z" fill="#5a371a"/>
  <path d="M541.936,548.967c6.006,2.325,12.187,3.561,18.657,3.002-6.957,3.588-13.063,1.885-18.657-3.002Z" fill="#543318"/>
  <path d="M216.147,287.003c-8.952-1.135-17.902-1.261-26.85,.039,8.945-3.529,17.895-3.172,26.85-.039Z" fill="#57351a"/>
  <path d="M116.564,145.064c6.874,.547,13.746,.817,20.61-.141-6.851,2.778-13.72,3-20.61,.141Z" fill="#60391c"/>
  <path d="M130.083,247.173c2.092-6.753,1.858-13.5-.054-20.242,4.087,6.737,3.988,13.484,.054,20.242Z" fill="#5b391a"/>
  <path d="M59.414,523.156c.363,6.242-.473,12.551,1.029,18.731-3.501-6.07-2.852-12.368-1.029-18.731Z" fill="#603c1e"/>
  <path d="M428.511,368.517c-1.68,3.23-4.188,5.647-7.326,7.442,1.757-3.155,4.302-5.534,7.326-7.442Z" fill="#5d3a1d"/>
  <path d="M358.142,321.84c-1.648-3.478-2.85-7.085-3.168-10.947,2.008,3.374,3.378,6.932,3.168,10.947Z" fill="#5c381a"/>
  <path d="M509.188,27.466c4.591,0,9.182,.002,13.775,.003-4.591,1.164-9.183,1.128-13.775-.003Z" fill="#764724"/>
  <path d="M413.319,566.372c2.973-1.533,6.156-2.09,9.471-2.027-2.919,1.785-6.094,2.378-9.471,2.027Z" fill="#553218"/>
  <path d="M401.845,566.367c3.846-.008,7.693-.017,11.539-.025-3.843,1.363-7.69,1.116-11.539,.025Z" fill="#553218"/>
  <path d="M566.586,285.887c.193,3.305-.402,6.442-1.988,9.369-.366-3.342,.563-6.408,1.988-9.369Z" fill="#5f391c"/>
  <path d="M62.226,240.162c2.676,1.704,4.418,4.125,5.449,7.093-2.395-1.919-4.16-4.323-5.449-7.093Z" fill="#5c381b"/>
  <path d="M90.277,203.165c-3.82-.02-7.639-.04-11.459-.061,3.827-1.312,7.648-1.49,11.459,.061Z" fill="#764822"/>
  <path d="M391.562,564.346c3.307-.04,6.493,.508,9.486,1.976-3.361,.297-6.537-.295-9.486-1.976Z" fill="#553218"/>
  <path d="M527.828,11.978c1.525,1.383,5.051,.375,4.921,3.516-.111,2.669-2.05,4.61-4.274,6.045-.996,.643-2.059,1.326-3.187,1.599-11.389,2.76-22.551,2.589-33.141-3.087-1.968-1.055-4.003-2.734-3.231-5.225,.773-2.495,3.42-1.609,5.353-1.772,6.068-.512,12.262,1.03,18.233-1.117,5.113-1.441,10.221-1.156,15.326,.041Z" fill="#764724"/>
  <path d="M286.466,140.485c.832-6.303,4.679-10.372,9.259-13.811,5.746-4.315,12.421-7.021,18.78-10.236,10.19-5.152,20.418-10.16,28.138-18.96,.735-.838,1.622-2.21,2.929-1.432,1.319,.786,.347,2.102,.096,3.214-2.538,11.229-10.739,17.369-20.261,22.065-10.044,4.954-20.955,7.997-30.729,13.57-2.868,1.635-5.482,3.714-8.213,5.59Z" fill="#978362"/>
  <path d="M286.149,446.189c1.497-7.176,6.433-11.515,11.998-14.96,6.052-3.747,12.409-7.084,18.885-10.048,9.24-4.228,17.669-9.465,24.65-16.922,.982-1.049,2.019-3.176,3.535-2.285,1.875,1.102,.227,3.052-.182,4.571-2.918,10.839-10.87,16.955-20.479,21.309-6.659,3.017-13.473,5.7-20.256,8.438-6.399,2.583-12.378,5.928-18.151,9.897Z" fill="#978261"/>
  <path d="M429.392,315.718c-4.321,.599-8.778-1.104-13.105-3.165-7.826-3.727-15.58-7.602-23.399-11.345-2.752-1.317-5.612-2.404-8.403-3.643-1.241-.551-3.664,.08-3.257-2.226,.296-1.678,2.318-1.758,3.823-1.93,2.737-.314,5.396-.004,8.036,.901,7.719,2.647,15.419,5.276,22.822,8.797,7.233,3.44,14.776,6.046,23.013,5.909,1.933-.032,5.029-.252,5.365,1.809,.424,2.605-2.927,2.709-4.738,3.644-2.965,1.53-6.287,1.243-10.158,1.25Z" fill="#937f62"/>
  <path d="M124.414,315.686c-8.073,.948-14.627-3.686-21.508-6.732-8.976-3.973-17.042-10.004-27.008-11.738-1.006-.175-2.106-.52-2.056-1.829,.048-1.245,1.096-1.696,2.119-1.829,3.908-.509,7.765-.382,11.628,.647,7.767,2.07,15.052,5.408,22.288,8.732,8.172,3.754,16.601,5.962,25.506,6.643,1.289,.099,3.117-.159,3.345,1.567,.219,1.657-1.617,1.974-2.774,2.559-3.596,1.818-7.467,2.214-11.541,1.979Z" fill="#947f63"/>
  <path d="M158.333,479.325c4.793-.819,9.434,1.737,14.058,3.714,10.647,4.553,21.217,9.179,32.826,10.806,1.5,.21,4.06,.081,4.035,2.207-.021,1.767-2.384,2.29-3.941,2.759-8.725,2.632-16.857,.18-24.669-3.472-6.93-3.24-13.645-6.937-20.478-10.386-1.665-.84-3.431-1.478-5.132-2.248-1.391-.63-4.213,.188-3.839-2.151,.303-1.897,2.896-.984,4.492-1.212,.667-.096,1.359-.016,2.649-.016Z" fill="#947f62"/>
  <path d="M211.651,189.249c-7.848,4.019-14.822,5.875-22.355,3.372-4.344-1.444-8.667-3.156-12.689-5.325-8.84-4.767-17.979-8.817-27.69-12.503,1.339-2.61,3.688-2.291,5.703-2.104,5.252,.488,10.338,1.565,15.369,3.418,10.182,3.751,19.77,9.123,30.627,11.095,3.227,.586,6.715-.004,11.035,2.047Z" fill="#947f62"/>
  <path d="M455.827,480.586c9.015-3.385,17.02-.147,24.916,3.41,9.297,4.189,18.422,8.806,28.997,8.837,1.801,.005,4.241,.178,4.483,2.453,.212,1.988-2.124,2.462-3.614,3.048-5.616,2.21-11.385,2.2-16.934-.017-4.885-1.951-9.664-4.241-14.289-6.75-7.604-4.125-15.374-7.839-23.559-10.983Z" fill="#947e60"/>
  <path d="M312.081,212.781c.197,8.985,.375,17.967,2.217,26.821,.29,1.395,1.376,3.356-.342,4.161-1.933,.905-2.971-1.209-3.923-2.474-2.731-3.629-4.146-7.778-4.091-12.35,.089-7.291-.316-14.579,.735-21.869,.501-3.474-.05-7.101-.139-10.659-.032-1.285-.771-3.038,1.13-3.356,1.573-.263,2.277,1.344,2.727,2.599,1.036,2.889,1.63,5.893,1.678,8.975,.042,2.717,.009,5.435,.009,8.152Z" fill="#957e62"/>
  <path d="M314.839,550.713c-5.57-3.318-8.83-7.917-8.853-14.316-.028-7.793-.325-15.576,.656-23.379,.618-4.916,.115-9.973,.115-16.243,5.125,4.938,5.285,10.467,6.147,15.584,.501,2.974,.375,6.114,.117,9.145-.833,9.785-.328,19.468,1.818,29.21Z" fill="#947e62"/>
  <path d="M246.896,405.922c.667,11.232-5.645,18.282-13.626,24.215-5.307,3.945-10.761,7.665-15.217,12.624-.754,.839-1.594,2.221-2.884,1.303-1.235-.879-.176-2.154,.127-3.253,1.61-5.835,6.495-9.057,10.639-12.648,6.839-5.926,13.484-11.887,17.783-20.027,.52-.985,1.099-2.157,3.178-2.214Z" fill="#917e62"/>
  <path d="M215.298,138.678c.709-7.214,5.172-12.025,9.953-16.518,6.531-6.137,14.017-11.35,18.244-19.632,.538-1.054,1.352-2.125,2.81-1.509,1.106,.467,1.219,1.607,1.179,2.618-.175,4.482-2.398,8.048-5.195,11.35-4.528,5.346-10.141,9.505-15.388,14.06-3.795,3.294-7.731,6.427-11.604,9.631Z" fill="#947e64"/>
  <path d="M520.604,444.207c-.228-6.015,4.04-9.724,7.8-13.401,7.527-7.359,16.026-13.778,21.442-23.093,.413-.711,.957-1.738,1.884-1.245,.592,.315,1.098,1.367,1.113,2.1,.09,4.212-1.083,8.144-3.646,11.462-1.967,2.546-4.043,5.212-6.626,7.039-7.11,5.026-13.849,10.424-19.799,16.793-.455,.487-1.074,.883-2.168,.346Z" fill="#917e62"/>
  <path d="M520.384,139.449c-.243-4.788,1.655-7.628,4.188-10.175,6.115-6.147,12.264-12.261,18.382-18.406,2.653-2.665,4.879-5.656,6.687-8.96,.486-.888,1.097-1.937,2.3-1.537,1.233,.41,.982,1.626,.88,2.626-.518,5.065-2.486,9.403-5.937,13.236-5.622,6.245-12.655,10.801-18.878,16.317-2.345,2.079-4.649,4.204-7.622,6.899Z" fill="#978061"/>
  <path d="M114.66,128.55c5.945-11.028,15.073-19.684,22.198-29.823,4.967-7.068,10.134-14.159,10.664-23.308,.499-.755,.413-1.613,.453-2.456,.076-1.574,.33-3.151,2.05-3.737,1.734-.591,2.842,.703,3.981,1.697,4.955,4.322,6.569,10.118,7.121,16.351,1.494,16.899-3.914,31.153-16.829,42.217-7.918,6.784-17.59,7.647-27.427,6.321-4.893-.66-2.565-4.484-2.211-7.262Z" fill="#764823"/>
  <path d="M109.566,124.457c-3.466,1.226-4.936-.846-6.074-3.604-3.767-9.131-1.456-17.96,1.547-26.635,2.321-6.704,7.377-12.088,9.653-18.866,.667-.696,1.335-1.392,2.002-2.087,5.67-4.579,10.82-10.055,19.005-9.963,2.865,.032,4.994,.356,4.645,3.923-2.261,10.707-8.128,19.568-14.348,28.278-6.479,9.073-13.148,18.057-16.43,28.953Z" fill="#774722"/>
  <path d="M114.66,128.55c.086,3.605,2.057,4.913,5.526,5.15,20.168,1.381,31.732-11.298,37.124-29.47,2.015-6.792,1.989-14.048,.508-21.194-.643-3.101-1.814-5.794-3.681-8.257-3.318-4.378-4.225-4.286-6.615,.641,.002-2.725-.085-5.454,.026-8.174,.142-3.505,1.918-4.226,4.646-2.248,6.206,4.5,11.402,9.742,12.34,17.912,1.891,16.48-.189,32.01-11.357,45.138-8.934,10.502-20.199,16.064-34.221,14.27-7.992-1.023-9.265-3.883-5.775-11.087,.444-.917,.984-1.788,1.48-2.68Z" fill="#60391c"/>
  <path d="M140.343,67.226c-5.205-3.272-11.137-2.784-16.333,1.61-2.233,1.888-4.45,3.655-7.316,4.431,4.887-8.189,12.98-11.362,21.658-12.325,4.406-.489,3.342,3.479,1.99,6.285Z" fill="#60391c"/>
  <path d="M420.421,128.556c4.577-9.889,12.5-17.304,19.068-25.715,5.139-6.58,10.262-13.126,12.695-21.3,1.666-4.077,1.1-8.519,2.088-12.71,6.734,.417,8.924,5.997,10.531,10.776,7.289,21.678-4.721,46.232-23.82,54.919-5.406,2.458-11.044,2.052-16.554,1.274-3.689-.521-4.863-3.602-4.008-7.243Z" fill="#764722"/>
  <path d="M415.325,124.475c-1.862,1.767-3.274,1.165-4.544-.778-1.63-2.494-2.422-5.226-2.607-8.171-1.256-19.995,6.867-35.649,22.619-47.386,4.586-3.417,10.441-3.827,16.179-2.916-1.701,8.472-5.793,15.887-10.408,23.019-5.247,8.109-10.636,16.128-16.107,24.087-2.564,3.73-3.301,8.15-5.133,12.143Z" fill="#774822"/>
  <path d="M420.421,128.556c2.87,5.2,9.327,6.71,17.495,4.464,5.315-1.461,9.234-4.934,13.241-8.328,10.552-8.937,16.664-30.505,12.192-43.551-1.661-4.845-3.883-9.502-9.066-11.744-.948-1.497-.989-2.968,.63-3.922,1.169-.689,1.969,.337,2.944,1.01,9.288,6.412,11.683,16.212,13.211,26.463,.102,.682-.045,1.35-.484,1.92,.002,1.347,.004,2.694,.006,4.041-3.781,4.993-4.284,11.415-7.206,16.732-3.928,7.149-7.434,14.801-15.921,18.041-1.557,.594-3.099,1.562-4.29,2.725-7.087,6.92-15.042,4.521-23.001,2.327-2.281-.629-2.044-2.382-1.79-4.129,.203-2.178,.841-4.209,2.041-6.049Z" fill="#613a1c"/>
  <path d="M470.583,94.869c-1.432-5.768-2.607-11.616-4.376-17.279-1.446-4.63-6.041-6.755-9.338-9.863-1.486-1.401-2.343,.11-2.588,1.67-.149,4.144,.371,8.402-2.097,12.144,.38-5.085,.705-10.174,1.166-15.252,.208-2.29,.883-4.274,3.846-2.528,9.05,5.333,15.923,21.314,13.388,31.108Z" fill="#60391b"/>
  <path d="M420.435,434.329c6.522-11.042,15.159-20.509,22.923-30.619,4.548-5.922,7.58-12.466,9.813-19.482,1.003-1.573,.403-3.318,.505-4.982,.114-1.853-.298-3.988,1.853-4.89,2.383-.998,3.845,.862,5.174,2.345,3.676,4.102,5.048,9.35,5.915,14.491,3.402,20.171-8.573,41.366-25.284,49.372-5.32,2.548-10.73,3.136-16.389,1.618-4.832-1.296-5.567-2.607-4.511-7.853Z" fill="#774822"/>
  <path d="M415.356,430.251c-3.74,2.864-5.019-.417-5.827-2.795-2.337-6.875-3.454-14.358-.789-21.001,4.063-10.127,7.469-20.785,16.26-28.472,6.533-5.713,13.437-8.373,21.953-5.956-4.26,15.606-14.553,27.798-23.159,40.945-3.539,5.407-6.814,10.939-8.438,17.28Z" fill="#754922"/>
  <path d="M420.435,434.329c.301,3.204,2.323,4.615,5.238,5.401,9.106,2.453,16.718-1.2,22.909-6.94,10.61-9.837,16.692-22.038,15.886-37.065-.29-5.405-2.026-10.311-4.107-15.145-.786-1.826-2.006-3.997-4.414-3.546-2.14,.401-1.439,2.743-1.842,4.3-.254,.98-.618,1.93-.933,2.894,.041-3.567-.072-7.144,.166-10.698,.27-4.035,2.105-4.948,5.218-2.557,7.361,5.653,11.677,12.942,12.063,22.468,.548,13.522-.944,26.549-9.279,37.768-7.28,9.8-16.895,16.092-29.246,17.643-1.337,.168-2.73,.256-4.057,.08-10.886-1.449-13.955-4.02-7.601-14.603Z" fill="#603a1b"/>
  <path d="M112.804,437.372c5.858-10.65,13.685-19.835,21.35-29.178,6.276-7.651,11.63-15.938,13.38-25.996,1.209-2.231-.953-6.193,2.773-6.907,3.603-.69,4.483,3.025,6.051,5.291,5.25,7.589,5.144,16.136,3.899,24.711-1.59,10.957-5.682,20.894-14.235,28.286-7.284,6.294-15.821,9.856-25.688,9.29-3.62-.208-6.561-1.555-7.531-5.497Z" fill="#764722"/>
  <path d="M109.539,432.217c-6.658-2.038-7.896-7.724-7.938-13.326-.087-11.702,4.121-22.289,10.329-32.028,4.058-6.366,9.12-11.789,16.365-14.781,2.771-1.144,5.641-1.119,8.497-1.413,2.451-.253,3.247,1.355,3.58,3.396-3.318,12.673-11.501,22.615-18.561,33.201-5.179,7.766-10.804,15.346-12.272,24.952Z" fill="#754721"/>
  <path d="M112.804,437.372c4.763,3.868,10.386,3.407,15.619,2.162,14.245-3.388,23.422-12.377,27.371-26.58,1.921-6.91,3.419-13.776,2.105-21.089-.684-3.806-1.887-7.199-4.02-10.331-.929-1.365-1.386-3.52-3.341-3.524-2.549-.005-1.916,2.826-3.004,4.188-.008-2.882-.008-5.764-.026-8.646-.024-3.817,1.798-4.493,4.809-2.69,5.842,3.499,9.315,8.67,10.493,15.38,2.092,2.268,1.382,5.124,1.607,7.773,.999,11.779-1.962,22.734-7.321,33.068-3.863,7.45-10.179,12.142-17.48,16.321-6.455,3.695-12.542,4.839-19.664,3.675-6.338-1.036-7.591-2.105-7.269-8.646l.12-1.062Z" fill="#613b1d"/>
  <path d="M112.684,438.434c1.971,6.292,11.394,10.971,18.737,7.559,7.96-3.698,16.944-6.833,21.919-14.906,6.048-9.816,10.849-20.139,10.042-32.243-.279-4.183,.845-8.447-.571-12.601,2.888,3.031,2.697,7.072,2.65,10.633-.154,11.738-2.434,23.091-9.157,33.015-8.476,12.51-19.802,19.917-35.563,18.729-1.183-.089-2.39-.21-3.525-.533-6.083-1.732-6.94-3.602-4.532-9.653Z" fill="#5d381b"/>
  <path d="M341.675,334.168c4.53,3.615,4.57,4.77,.03,8.392-7.313,5.833-15.745,7.73-24.913,6.851-26.211-2.515-46.708-19.032-53.299-45.512-2.057-8.263,.527-16.225,4.755-23.492,1.815-3.119,4.488-3.917,7.832-2.018,1.304,.74,2.844,1.065,4.277,1.579,1.279,.055,1.913,.775,2.065,1.994-1.064,2.844-3.503,4.743-4.693,7.696-5.621,13.95,4.329,33.927,16.94,41.317,5.697,3.339,11.508,6.61,18.191,7.815,8.92,1.608,17.594,2.569,23.431-6.651,2.109-.138,4.416-.816,5.386,2.03Z" fill="#613a1c"/>
  <path d="M341.675,334.168c-2.023-.026-4.047-.051-6.07-.077-2.778,1.778-5.232,1.165-8.028-.408-10.668-6.001-18.04-15.408-25.628-24.535-6.193-7.449-12.133-15.108-18.657-22.28-1.267-1.393-2.665-2.72-1.89-4.894-.349-.669-.697-1.338-1.046-2.006,.354-1.043,.709-2.087,1.063-3.131,1.721,.323,3.442,.646,5.163,.97,1.775-2.075,3.576-1.178,5.418-.085,8.02,4.76,14.179,11.557,20.425,18.32,9.106,9.858,17.991,19.983,29.266,27.546,3.336,.922,4.244,4.176,6.186,6.439l-.008,.003c.901,.924,2.558,.885,3.25,2.89-3.243,.429-6.344,.84-9.444,1.25Z" fill="#432610"/>
  <path d="M399.326,253.744c-4.983,1.361-9.611-4.044-15.35-6.705-8.992-4.169-10.574-13.628-15.624-20.56-2.186-3,.214-6.738,1.931-9.482,1.559-2.491,4.428-.872,6.536-.039,9.095,3.593,16.56,9.931,24.678,15.145,6.701,4.304,13.812,7.183,21.527,8.773,1.655,.341,3.547,.297,4.096,2.369,.555,2.097-.683,3.598-2.081,4.888-2.451,2.262-5.486,3.485-8.703,3.926-4.87,.667-9.786,.991-17.01,1.684Z" fill="#754722"/>
  <path d="M382.679,213.344c-2.768-3.537-1.479-5.568,2.469-6.55,8.674-2.158,17.073-.495,24.873,3.061,6.07,2.767,12.493,5.438,16.132,11.959,2.143,3.841,3.814,7.58,3.463,12.027-9.529,.063-16.692-5.913-24.708-9.699-7.449-3.518-13.858-9.175-22.229-10.799Z" fill="#764722"/>
  <path d="M357.622,163.204c5.45-3.493,11.01-1.451,16.332-.491,6.866,1.238,13.615,3.031,20.674,2.853,1.08-.027,2.735-.417,2.873,1.235,.111,1.319-1.325,1.874-2.401,2.352-4.223,1.876-8.676,1.776-13.064,1.034-8.344-1.411-15.915-5.651-24.415-6.983Z" fill="#978061"/>
  <path d="M201.951,66.824c1.686-4.356,3.976-6.685,6.899-8.441,8.546-5.134,18.614-7.683,25.779-15.19,.36-.378,1.43-.588,1.813-.335,1.023,.675,.775,1.835,.335,2.755-1.889,3.951-4.815,6.934-8.603,9.133-5.62,3.262-11.879,5.032-17.737,7.73-2.535,1.167-4.975,2.54-8.486,4.35Z" fill="#978061"/>
  <path d="M52.824,163.309c5.122-3.893,10.499-1.565,15.509-.539,6.827,1.398,13.553,2.978,20.574,2.802,1.074-.027,2.663-.432,2.841,1.253,.117,1.104-1.09,1.636-1.988,2.088-4.32,2.173-8.865,1.943-13.445,1.157-8.022-1.375-15.311-5.346-23.491-6.761Z" fill="#978061"/>
  <path d="M357.598,469.185c4.058-2.847,8.302-2.192,12.511-1.345,5.804,1.168,11.585,2.448,17.366,3.723,2.383,.526,4.717,.153,7.076-.131,1.124-.135,2.668-.573,3.127,.84,.576,1.775-1.226,2.221-2.345,2.763-2.826,1.37-5.94,1.328-8.982,1.361-10.184,.11-18.861-5.701-28.754-7.211Z" fill="#978061"/>
  <path d="M203.002,371.686c1.435-5.443,5.795-7.632,9.946-9.621,7.495-3.592,15.146-6.821,21.44-12.451,.624-.558,1.369-1.231,2.215-.627,.837,.598,.504,1.554,.183,2.33-1.748,4.225-4.645,7.448-8.639,9.66-7.983,4.423-17.114,6.139-25.145,10.709Z" fill="#998563"/>
  <path d="M542.773,349.996c-.392,2.301-1.535,3.775-2.724,5.242-4.255,5.244-10.28,7.734-16.188,10.374-3.727,1.666-7.529,3.169-11.317,4.694-1.033,.416-2.306,1.662-3.21,.405-1.04-1.447,.484-2.486,1.422-3.365,3.288-3.08,7.414-4.855,11.385-6.756,6.165-2.952,12.29-5.868,17.208-10.781,.694-.693,1.464-1.656,2.6-1.137,.464,.212,.651,1.028,.823,1.325Z" fill="#998463"/>
  <path d="M507.787,66.636c1.509-4.841,4.461-7.109,7.707-8.951,8.258-4.686,17.51-7.664,24.583-14.395,.416-.396,1.314-.703,1.795-.526,.969,.357,.805,1.359,.608,2.19-1.06,4.48-4.097,7.286-7.909,9.526-5.915,3.474-12.524,5.292-18.738,8.042-2.491,1.103-4.864,2.475-8.045,4.113Z" fill="#998663"/>
  <path d="M71.697,523.451c9.396,3.314,16.478,10.423,24.967,15.223,5.693,3.219,11.095,7.178,18.056,7.238,.772,.455,1.649,.287,2.47,.435,4.029,.725,4.679,2.678,2.035,5.912-1.32,1.615-2.969,2.858-4.865,3.593-9.297,3.601-18.537,4.156-28.017,.185-7.568-3.171-14.25-7.059-18.239-14.617-2.586-4.901-2.887-9.959-1.674-15.197,.655-2.828,2.446-3.872,5.267-2.771Z" fill="#754823"/>
  <path d="M76.896,519.221c-3.345-1.487-3.196-2.916-.044-4.554,8.806-4.576,17.437-2.661,25.961,.729,4.395,1.748,8.628,3.902,12.934,5.873,3.642,3.338,7.138,6.802,9.182,11.417,.933,2.106,1.366,4.278-.282,6.24-1.718,2.043-3.649,.822-5.604,.292-8.792-2.386-16.691-6.676-24.248-11.57-5.616-3.638-11.579-6.37-17.9-8.428Z" fill="#754721"/>
  <path d="M71.697,523.451c-3.749,3.035-4.47,10.485-1.547,16.258,5.217,10.305,14.779,14.302,25.174,16.078,6.633,1.134,13.671,.771,19.757-3.191,4.051-2.637,3.925-4.124-.361-6.685,1.019-.022,2.047-.141,3.055-.048,2.112,.194,4.939-.914,6.063,1.429,1.281,2.67-1.115,4.692-2.591,6.703-2.925,3.984-7.594,5.782-11.832,6.465-13.473,2.171-26.263,.554-37.025-9.296-5.074-4.644-8.279-10.045-10.504-16.469-1.391-4.017-.761-7.471,1.046-10.729,2.403-4.333,5.732-1.942,8.765-.515Z" fill="#603c1e"/>
  <path d="M109.591,239.078c2.235,1.4,4.726,1.833,7.306,1.997,.994,.063,2.187,.041,2.62,1.183,.536,1.415-.562,2.268-1.512,2.908-1.544,1.04-3.161,2.03-4.867,2.763-12.941,5.555-32.329,.679-41.059-10.347-3.063-3.869-4.482-8.355-4.349-13.313,.154-5.727,1.321-6.671,7.187-5.775,7.594,3.454,13.728,9.149,20.676,13.604,4.469,2.866,9.271,4.785,13.998,6.982Z" fill="#774722"/>
  <path d="M99.393,207.332c4.121,2.005,8.168,4.187,12.384,5.969,4.997,2.112,8.294,6.011,10.821,10.415,1.864,3.249,2.618,7.098-.761,10.29-9.837-2.337-18.489-7.292-27.077-12.354-5.677-3.346-11.194-6.99-17.821-8.269-3.721-2.716-3.59-4.146,.564-5.998,7.287-3.249,14.589-1.867,21.89-.053Z" fill="#764822"/>
  <path d="M426.519,545.892c.02,4.539-5.209,10.222-11.536,10.694-13.201,.985-26.52,1.092-36.16-10.427-3.865-4.619-6.667-9.87-6.341-16.237,.199-3.884,1.612-6.626,6.055-6.603,9.426,4.323,17.173,11.292,26.019,16.567,6.926,4.13,13.844,6.895,21.962,6.007Z" fill="#744822"/>
  <path d="M484.312,239.196c6.599-.485,10.115,4.361,14.084,7.977,4.176,3.805,8.723,6.932,14.804,10.122-5.79,1.245-9.708,.077-13.371-2.588-5.953-4.331-9.388-11.17-15.517-15.511Z" fill="#978061"/>
  <path d="M206.925,257.307c-9.827,1.179-13.21-1.143-28.293-18.162,4.597-.498,6.323,.341,13.704,7.629,4.005,3.954,8.687,6.96,14.589,10.533Z" fill="#978061"/>
  <path d="M483.272,545.105c3.439-1.932,5.205-.184,6.904,1.004,7.071,4.944,12.409,12.191,20.684,15.568,.485,.198,1.042,1.06,.993,1.557-.107,1.096-1.197,1.025-2.009,1.055-4.126,.151-7.651-1.417-10.721-4.029-5.422-4.613-9.505-10.564-15.852-15.155Z" fill="#9b8665"/>
  <path d="M203.264,564.325c-3.174-.228-6.343-1.097-8.789-3.332-4.89-4.47-9.585-9.154-14.332-13.78-.695-.677-1.67-1.52-.682-2.557,.673-.706,1.555-.114,2.346,.185,3.939,1.489,6.762,4.556,9.816,7.199,3.986,3.449,7.627,7.283,12.696,9.23,.92,.353,2.12,.872,1.732,2.115-.373,1.196-1.682,.825-2.789,.94Z" fill="#9b8665"/>
  <path d="M490.026,312.687c-5.449-1.308-6.531-4.259-3.162-8.572,12.661-16.208,37.26-11.729,46.315,2.382,1.26,1.964,2.029,3.929,.768,6.178-9.545-4.769-19.48-3.001-29.337-1.594-4.852,.692-9.666,1.581-14.585,1.607Z" fill="#764722"/>
  <path d="M180.185,312.644c-1.604-5.982,2.896-13.882,9.639-16.921,8.445-3.806,16.879-2.734,25.258,.179,1.908,.664,3.608,1.909,5.494,2.656,6.881,2.723,9.931,7.84,9.691,15.1-10.064-5.524-20.729-4.446-31.334-2.515-6.236,1.136-12.455,1.556-18.749,1.5Z" fill="#764722"/>
  <path d="M74.86,476.219c-2.655-.853-5.156-2.315-8.095-2.032-3.353-2.718-7.636-2.601-11.493-3.787-1.039-.32-2.721-.163-2.41-1.898,.208-1.16,1.57-1.232,2.556-1.221,2.714,.028,5.509-.186,8.124,.378,9.583,2.069,18.992,5.182,29.323,3.761-3.419,5.203-6.107,5.86-18.004,4.8Z" fill="#978061"/>
  <path d="M552.383,236.971c-3.731,1.361-6.33-.738-8.402-3.226-8.241-9.891-3.892-30.432,7.532-36.179,4.605-2.317,6.512-1.696,8.058,2.624-.705,6.795-3.803,12.89-5.671,19.344-1.657,5.723-2.522,11.493-1.516,17.437Z" fill="#724522"/>
  <path d="M246.644,530.481c-1.554,3.219-.759,6.692-1.09,10.043-.118,1.192-.206,2.502-1.547,2.959-1.318,.449-2.203-.473-3.07-1.331-9.469-9.371-8.296-29.106,2.257-37.153,3.405-2.596,7.37-3.322,11.561-3.084-.051,4.987-1.679,9.673-3.388,14.198-1.789,4.736-3.649,9.411-4.724,14.368Z" fill="#764723"/>
  <path d="M560.523,505.915c-2.786,9.933-7.819,19.218-8.527,29.756-.115,1.713-.288,3.384,.388,5.015-.844,5.158-1.806,5.81-5.363,2.499-6.857-6.383-8.801-15.083-7.591-23.748,1.177-8.429,6.32-15.008,14.927-17.863,3.743-1.242,5.923,.317,6.166,4.341Z" fill="#734822"/>
  <path d="M246.644,224.711c-1.441,2.873-.848,5.984-1.06,9.002-.094,1.335-.006,2.868-1.651,3.368-1.32,.402-2.204-.588-3.092-1.37-10.586-9.333-7.666-32.118,4.933-38.516,2.867-1.456,5.944-1.077,8.982-1.052-1.151,7.694-3.593,15.012-6.362,22.247-.778,2.032-1.177,4.21-1.749,6.321Z" fill="#764721"/>
  <path d="M339.687,325.948c-11.402-9.013-21.331-19.532-31.04-30.286-6.411-7.101-13.183-13.793-22.066-17.856,.198-2.662,1.992-3.606,4.274-4.353,6.396-2.093,12.601-2.045,18.878,.609,16.557,7.001,29.487,17.739,37.162,34.409,3.158,6.859,1.666,13.622,.963,20.496-3.883,2.132-5.23-2.601-8.171-3.019Z" fill="#754822"/>
  <path d="M339.687,325.948c3.077,.05,5.077,3.016,8.171,3.019,.006,.353,.012,.705,.018,1.058-3.801,.792-5.901-1.831-8.189-4.078Z" fill="#4c2c13"/>
  <path d="M281.402,281.973c7.703,6.246,13.347,14.339,19.613,21.874,7.989,9.607,15.261,19.895,26.294,26.536,2.659,1.6,5.561,2.411,8.295,3.708,.987,1.01,3.338,.864,2.965,2.946-.267,1.486-1.983,1.706-3.183,2.265-8.978,4.179-18.287,4.072-27.375,.999-17.716-5.991-30.249-17.158-34.261-36.289-1.402-6.683,.661-12.789,2.757-18.887,.718-2.087,2.73-2.921,4.895-3.151Z" fill="#764822"/>
</svg>